<?xml version="1.0" encoding="utf-8"?>
<!-- Generator: Adobe Illustrator 18.0.0, SVG Export Plug-In . SVG Version: 6.00 Build 0)  -->
<!DOCTYPE svg PUBLIC "-//W3C//DTD SVG 1.1//EN" "http://www.w3.org/Graphics/SVG/1.1/DTD/svg11.dtd">
<svg version="1.1" id="Layer_1" xmlns="http://www.w3.org/2000/svg" xmlns:xlink="http://www.w3.org/1999/xlink" x="0px" y="0px"
	 viewBox="0 0 700.6 651.7" enable-background="new 0 0 700.6 651.7" xml:space="preserve">
<g>
	<path fill="none" stroke-width="2" stroke-linecap="round" stroke-linejoin="round" stroke-miterlimit="10" d="
		M682.4,395.7c0.5-5.2,1.6-10.3,2.2-15.5c0.7-5.9,1.9-11.6,0.5-17.5c-0.6-2.5-0.4-5.3,0.8-8c1.5-3.6,0.8-7.7,0.5-11.4
		c-0.6-8.3-0.5-16.7-1.9-25c-2.2-13.7-5.8-26.9-11.6-39.5c-7.7-16.9-18.5-31.5-33.1-42.9c-15.7-12.2-32.8-22.3-52-27.8
		c-9.8-2.8-19.7-5.2-29.8-7.2c-15.7-3-31.4-3.9-47.1-2.8c-15.8,1-31.7,2.5-46.5,9.2c-13.7,6.1-26.5,13.5-37.9,23.1
		c-10.5,8.8-20.6,18-28.6,29.4c-6.8,9.6-11.8,20-15.3,31.1c-4.5,14.1-7.6,28.6-7.9,43.5c-0.1,5.6-2.8,11.6,1.3,17"/>
	<path fill="none" stroke-width="2" stroke-linecap="round" stroke-linejoin="round" stroke-miterlimit="10" d="
		M383,464.7c0.8,3.2,1.3,6.5,2.6,9.5c1.5,3.3,0.2,5.8-2.2,6.8c-2.2,1-5.1,0.8-6.5-2.8c-1.8-4.6-3.6-9-3.4-14c0.2-5-0.5-9.8-2.4-14.5
		c-1.9-4.6-0.4-9.4,1.6-13.4c4.1-8.1,4.8-16.1,1.9-24.6c-0.9-2.7-1.3-5.7-2-8.5c-0.6-2.4-0.8-5.3-4.5-5c-3.3,0.3-3.5,2.9-4.1,5.5
		c-1.5,5.9-3.1,11.9-2.3,18c0.7,5.2-2.4,9.1-3.9,13.4c-3.7,10.8-1.1,20.2,3.7,29.6c4,7.8,6.3,16.4,9.5,24.5"/>
	<path fill="none" stroke-width="2" stroke-linecap="round" stroke-linejoin="round" stroke-miterlimit="10" d="
		M38,308.2c-4.5,7.4-0.8,12.6,4.5,17.5c3.5,3.2,3.6,6.9,1.6,11c-1.4,2.9-2.9,5.9-3.4,9c-1.2,6.8,1.3,12.8,4.8,18.5
		c5.8,9.4,15.4,11,25,13c8.9,1.9,17.8,3.4,26.6,6.3c9.5,3.1,14.5,10.2,16.7,18.7c3.5,13.4,10,25.6,14.7,38.4
		c2.4,6.5,6.8,11.3,12,15.5"/>
	<path fill="none" stroke-width="2" stroke-linecap="round" stroke-linejoin="round" stroke-miterlimit="10" d="
		M38,69.3c0-2.8,1.2-4.9,2.9-7c8.6-10.3,19-19,29.8-26.5c5-3.5,9.8-7.9,15.7-10.4c5.9-2.5,11.5-5.9,17.6-7.8
		c11.8-3.8,23.3-8.3,35.9-10c13.7-1.9,27.3-4.3,41.1-5c9.8-0.5,19.7-1,29.5-1.4c13.1-0.5,25.8,1.4,38.5,3.7
		c18.7,3.4,36.4,9.7,51.9,20.7c9.9,7,18.5,15.6,26.9,24.6c11.9,12.7,19.8,27.3,25.8,43.2c3.2,8.4,4.2,17.3,5.9,26
		c3.3,17.2,2.4,34.2-0.2,51.5c-3.2,22.2-13.1,41.4-23.8,60.5c-5.8,10.3-11.3,20.7-17.1,30.9c-0.8,1.5-0.7,2.7-0.9,4.1"/>
	<path fill="none" stroke-width="2" stroke-linecap="round" stroke-linejoin="round" stroke-miterlimit="10" d="
		M632.5,421.7c-7.5,1.7-14.3-0.3-20.5-4.5c-5.7-3.9-11.4-8-18.1-9.8c-8.2-2.2-16.4-0.4-23.9,3.4c-5.2,2.6-10.1,5.9-15,8.9
		c-3.4,2.1-3.4,4.3,0,6.5c0.7,0.4,1.6,0.5,2.5,0.5c12,0.2,23.6,3.4,35.5,4c7.1,0.4,13.3-1.5,18.5-6.5c0.8-0.7,2-1,3-1.5"/>
	<path fill="none" stroke-width="2" stroke-linecap="round" stroke-linejoin="round" stroke-miterlimit="10" d="
		M642.9,526.2c-2.4,3.8-2.3,8.3-3.4,12.5c-6.6,23.6-19.7,42.8-39.2,57.3c-9.8,7.3-18.1,16.5-28.8,22.9c-11,6.6-22.1,11.9-35.1,12.9
		c-18.7,1.4-36.5-1.7-52.9-10.7c-6.7-3.7-13.2-8.1-19.3-13.1c-7.1-5.8-14.7-11.1-22.3-16.2c-15.2-10.1-27.1-23-35.4-39.1
		c-4.4-8.5-7.8-17.6-10-27c-2.3-10.1-4.1-20.3-6.1-30.5"/>
	<path fill="none" stroke-width="2" stroke-linecap="round" stroke-linejoin="round" stroke-miterlimit="10" d="
		M593,269.7c-1.8-3.8-3.2-8-5.6-11.4c-4.9-7.2-11.9-11.8-19.9-15.1c-8.7-3.7-17.8-7.1-27-7.6c-13-0.8-26.2-1.8-39,2.2
		c-0.6,0.2-1,0.6-1.5,1"/>
	<path fill="none" stroke-width="2" stroke-linecap="round" stroke-linejoin="round" stroke-miterlimit="10" d="
		M241,250.2c5.8,5.9,12.2,11.3,20,13.8c7.9,2.6,14.8,7.9,23.4,8.1c7.9,0.2,15.7-0.5,23.5-1.4c9-1,7-1.3,4.9,6.3
		c-3.4,12.4-7.7,24.7-8.2,37.5c-0.5,14.3,3.3,27.8,10.2,40.5c2.5,4.6,6.9,8.3,7.6,14"/>
	<path fill="none" stroke-width="2" stroke-linecap="round" stroke-linejoin="round" stroke-miterlimit="10" d="
		M695.9,439.2c-3.4-3.3-1.9-8.1-3.4-12c-0.4-1-0.6-2-0.9-3c-1.1-3.4-3.5-5.6-6.6-5.3c-3.4,0.3-4.7,3.5-5,6.8
		c-0.5,5.5-0.5,11-0.1,16.5c0.8,11.8-1,23.2-8.4,33c-3.2,4.3-4.1,9.9-8.4,13.6c-1.9,1.7-4.3,3.6-5.9,2.2c-2-1.6-3.6-4.3-1.9-7.9
		c0.8-1.6,3.3-3.4,1.7-5.9"/>
	<path fill="none" stroke-width="2" stroke-linecap="round" stroke-linejoin="round" stroke-miterlimit="10" d="
		M596.5,258.2c0.3-2.7,1.8-4.3,4.5-4.5c2-0.2,3.9,1.1,4.3,2.5c0.7,2.3,0.1,4.7-2.3,6.5c-2.7,2.1-5.9,3.3-7.4,7.3
		c-0.9,2.5-1.4,4.5-0.6,6.6c1.3,3.8,1.5,7.6,1.9,11.5c0.3,2.7-0.9,2.7-3,2.1c-0.9-0.3-1.9-0.8-2.4-1.2c-7.3-5.7-16-7.8-24.6-9.2
		c-15.5-2.5-31.2-5.7-46.9-4.9c-11.7,0.5-23.4,0.1-35.1,2.4c-8.5,1.7-16.9,4.2-25.4,5.8"/>
	<path fill="none" stroke-width="2" stroke-linecap="round" stroke-linejoin="round" stroke-miterlimit="10" d="
		M200,254.2c7-12.7,11.7-26.4,14.3-40.5c1.2-6.5,0.7-13.4-3.7-19.5c-4.2-5.8-16.8-7.8-23.1-2.4c-3.7,3.1-4.3,6.6-2.5,11.5
		c2.2,6,6.1,10.8,9.5,16c0.7,1,1.5,1.7,2.1,2.9c5.5,11.5,4.2,17.9-6.1,26.5c-1.5,1.2-3.1,2.2-4.5,3.5c-1.2,1.2-2.8,1.5-4,0.9
		c-1.3-0.8-0.8-2.6-0.5-3.9c0.8-3.1,1.4-6.3,3-9c4.6-7.7,1.8-13.9-3.1-20.1c-5.4-6.8-8.4-14.8-7.8-23.5c0.3-4.9,3.9-8.9,7.8-12
		c15.3-11.7,36-3.7,39.9,14c0.8,3.6,1.2,7.4,2.1,11c0.9,3.6-1.4,6.4-2.3,9.5c-1.5,5.5-3.9,10.8-6.4,16c-3.2,6.8-4,14.4-7.4,21
		c-0.6,1.1-0.7,2.6-1.6,3.5c-5.6,5.8-10.4,12.3-15.5,18.5c-0.7,0.9-1.6,1.8-2.5,2.5c-4.6,3.6-9.8,2.6-12.4-2.5
		c-0.5-0.9-1-1.7-1.6-2.4"/>
	<path fill="none" stroke-width="2" stroke-linecap="round" stroke-linejoin="round" stroke-miterlimit="10" d="
		M14,154.8c-1.9,1.9-1.8,4.2-1.5,6.5c1.5,9.2,3.8,18.2,6.9,27c3.5,9.8,3.7,19.3,0.3,29.6c-2.5,7.6-5.4,15.3-8.1,22.8
		c-2.7,7.4-6.2,14.7-9.3,22.1c-1.1,2.7-1.6,5.3-1.3,8c0.7,6.5,4.3,9.2,10.9,7.9c7.2-1.4,14.3-1.5,21,1.6c6.8,3.2,11.8,0.8,16-4.5"/>
	<path fill="none" stroke-width="2" stroke-linecap="round" stroke-linejoin="round" stroke-miterlimit="10" d="
		M671.9,421.2c-2.1-6,2.6-10.6,3.6-16c0.3-1.4,1.3-2.7,1.9-4c2.7-5.1,5.6-6.2,11-4c7.3,3,10.4,9,11,16.5c0.6,7.8-0.6,15.5-2.3,22.9
		c-1.1,4.8-0.1,9.4-0.5,14.1c-1,12.1-5.2,22.8-11.6,33c-5.7,9.1-11.2,18.4-15.2,28.4c-0.7,1.8-1.1,4.8-4.4,4.6"/>
	<path fill="none" stroke-width="2" stroke-linecap="round" stroke-linejoin="round" stroke-miterlimit="10" d="
		M490.5,232.3c-9.3-2.3-18.7-1.9-28,0c-18.9,3.8-33.6,14.1-44.5,30"/>
	<path fill="none" stroke-width="2" stroke-linecap="round" stroke-linejoin="round" stroke-miterlimit="10" d="
		M428,582.2c-2.3,4.8-0.9,9.7-0.4,14.5c0.9,8.5-0.1,16.8-1.7,25c-1.9,9.8-3.6,19.7-7.4,29"/>
	<path fill="none" stroke-width="2" stroke-linecap="round" stroke-linejoin="round" stroke-miterlimit="10" d="
		M315,52.3c-9.7,4.1-13.3,12.6-15.5,22c-2.2,9.3-1,18.5,2.1,27.5c1.1,3.3-0.2,3.9-2.6,3.5c-5.9-1.1-11.8-1.8-17.5-3.9
		c-1.4-0.5-1.8-1.7-2.4-2.6c-4.9-6.7-10.7-12.6-16.7-18.3c-3.7-3.5-8.5-6-13.4-8.1c-1.3-0.6-2.8-0.8-4-1.5
		c-8.3-5.8-18.1-5.9-27.5-7.4c-12.5-2-25-0.8-37.5,0.3c-2,0.2-3.8,2.3-6,0.6"/>
	<path fill="none" stroke-width="2" stroke-linecap="round" stroke-linejoin="round" stroke-miterlimit="10" d="
		M115,199.3c1.2-0.2,2.3-0.5,3.5-0.5c5.6-0.1,6.1,0.4,5,6c-0.8,3.9-0.4,7.3,2,10.5c3.9,5.2,8.1,10.2,14.1,12.9
		c9.3,4.2,18.5,2.4,27.4-1.5c4.4-1.9,8.7-4.3,13-6.5"/>
	<path fill="none" stroke-width="2" stroke-linecap="round" stroke-linejoin="round" stroke-miterlimit="10" d="
		M218.5,110.8c-5.2-3.3-10.4-0.9-15.5,0.1c-14.7,2.7-28.6,8.3-43,12c-10.9,2.8-21.8,6-33,6.9c-9.7,0.8-18.8-1.7-25.3-9.1
		c-3.8-4.4-5.9-10.3-3.8-16.9c1.1-3.4,2.7-7.1,1.1-11"/>
	<path fill="none" stroke-width="2" stroke-linecap="round" stroke-linejoin="round" stroke-miterlimit="10" d="
		M487,419.2c2.9-6.1,2.6-5.8-4.4-9.1c-5.3-2.5-10.5-5.1-16.1-6.2c-11-2.1-21.3,0.4-30.5,6.9c-4.1,2.9-15.3,2.7-19.5-0.6
		c-1-0.8-2-1.2-3-0.9c-4.7,1.2-8.5-2.1-13-2.3c-2-0.1-3.8-2.4-5.1-4.7c-3.6-6.6-5.8-13.9-6.5-21.1c-0.5-5.2,2.2-10.7,3.7-15.9
		c0.5-1.7,1.8-3.2,0.4-5"/>
	<path fill="none" stroke-width="2" stroke-linecap="round" stroke-linejoin="round" stroke-miterlimit="10" d="
		M490.5,502.2c4.7,7,8.3,8.4,17.5,5.4c3.8-1.2,7.3-1.3,10.5,0.2c3.4,1.7,6.8,1.7,9.5-0.3c4-2.9,8.2-1.9,11.5-0.6
		c3.8,1.6,6.5,0.8,9.6-0.8"/>
	<path fill="none" stroke-width="2" stroke-linecap="round" stroke-linejoin="round" stroke-miterlimit="10" d="
		M198.5,149.8c1.1-8.9,5-16.7,10-24c3.3-4.8,8-8.7,10-14.5c0.7-2.2,2.2-1.5,4-1.1c9.5,2.4,18.3,6.4,27,11c9.1,4.8,16.2,11.7,22,20
		c1.7,2.4,1.6,4.9,1.4,7.5c-0.8,9.5-5.1,16.5-13.4,21.6c-5,3.1-9.7,6.8-13.1,11.8c-0.5,0.7-0.4,1.3-0.5,2"/>
	<path fill="none" stroke-width="2" stroke-linecap="round" stroke-linejoin="round" stroke-miterlimit="10" d="
		M377,391.2c-1.4,0.5-2.4-0.5-3.5-1c-9-4.6-16.4-0.9-18.5,9c-1.4,6.4-0.2,12.7,0.7,19c0.6,4-0.7,8.5,2.3,12"/>
	<path fill="none" stroke-width="2" stroke-linecap="round" stroke-linejoin="round" stroke-miterlimit="10" d="
		M662.9,336.2c-0.6-2-0.5-3.9-0.1-6c2-9.1,2.5-18.3,0.5-27.5c-1.4-6.4-3.8-12.5-9-17c-2.5-2.2-5.3-4.1-8-6c-1.3-0.9-2.8-1.6-4.5-0.5
		"/>
	<path fill="none" stroke-width="2" stroke-linecap="round" stroke-linejoin="round" stroke-miterlimit="10" d="
		M101.5,121.8c-2,3-0.4,6.4-1,9.5c-1.6,7.6-2.2,15.4-3.8,23c-1.7,8.1,1.5,15.3,5.9,22c2.8,4.2,5.8,8.2,8.4,12.5
		c2.5,4.1,3.8,8.6,3.6,13.5c0,1.4-0.7,2.2-1.6,3"/>
	<path fill="none" stroke-width="2" stroke-linecap="round" stroke-linejoin="round" stroke-miterlimit="10" d="
		M433.5,413.2c5.4,10.3,13.4,13.3,26.5,10c7.6-1.9,14.9-5.3,23-4c4.8,0.8,9.7-0.8,14.5,0.5"/>
	<path fill="none" stroke-width="2" stroke-linecap="round" stroke-linejoin="round" stroke-miterlimit="10" d="
		M91.5,49.3c4.2-0.1,7.2-3.3,11-4.6c7.9-2.8,15.2-7,23.6-8.3c6.8-1,12.4-5.1,18.9-6.8c4.2-1.1,8.4-1,12.5-1.9c2.8-0.6,6-0.2,8-3
		c0.9-1.2,2.5-0.8,3.4-0.4c5.6,2.3,11.2,0.5,16.5-0.3c6.7-1,13.4-1,20-0.6c8.8,0.5,17.7-0.4,26.5,1.3c11.6,2.3,22.3,6.3,32.1,13.3
		c8.7,6.2,16.4,13.7,26.3,18.3c4.6,2.1,9.7,1.7,14.3,3.4"/>
	<path fill="none" stroke-width="2" stroke-linecap="round" stroke-linejoin="round" stroke-miterlimit="10" d="
		M169,67.3c-0.1,1.6,0,2.9-1.3,4.6c-7.6,10.8-12,22.8-12.4,36.3c-0.2,5-0.6,9.8,1.2,14.5"/>
	<path fill="none" stroke-width="2" stroke-linecap="round" stroke-linejoin="round" stroke-miterlimit="10" d="
		M508,420.2c0.4,3-3.3,6.8-7.5,7.5c-1.3,0.2-2.8,0.5-4,0c-10.4-4.4-20.2-0.3-30,2.1c-6.4,1.6-12.8,3-19.5,1.9c-4-0.6-6.7-4-10.5-5"
		/>
	<path fill="none" stroke-width="2" stroke-linecap="round" stroke-linejoin="round" stroke-miterlimit="10" d="
		M619.5,429.2c-5.4,3-11.2,5.1-17,7c-7.3,2.4-14.6,2.9-22,0c-5.8-2.3-12-1-18-2c-2.7-0.4-5.3-0.7-8-1"/>
	<path fill="none" stroke-width="2" stroke-linecap="round" stroke-linejoin="round" stroke-miterlimit="10" d="
		M524.5,319.7c-4.6,2.5-9.4,0.4-14,0.3c-15-0.4-30.1-1.3-45,1.3c-20.2,3.5-38.6,11.5-55,23.9c-4.9,3.7-10.5,6.7-14,12"/>
	<path fill="none" stroke-width="2" stroke-linecap="round" stroke-linejoin="round" stroke-miterlimit="10" d="
		M585.5,375.2c-0.3,6.4,2.9,12,4.3,17.9c1.1,4.3-0.7,4.9-3.3,5c-10.5,0.2-19.2,4.8-27.5,10.5c-3.9,2.7-8.5,4.3-13.4,3.1"/>
	<path fill="none" stroke-width="2" stroke-linecap="round" stroke-linejoin="round" stroke-miterlimit="10" d="
		M173.5,166.8c4.4-8.4,11.9-13,20.5-15.4c11.6-3.3,21.9,0.7,32,6.3c13.3,7.4,16.3,19.9,17.1,33.1c0.3,4.4-2.7,9.4-5.3,13.4
		c-3,4.3-7.6,7.2-13.3,7.6"/>
	<path fill="none" stroke-width="2" stroke-linecap="round" stroke-linejoin="round" stroke-miterlimit="10" d="
		M506,276.7c-0.8,8.3-1.5,16.6-0.5,25c0.9,7,5.3,11.1,11.5,13.4c2.6,1,5.4,1.5,7.5,3.6"/>
	<path fill="none" stroke-width="2" stroke-linecap="round" stroke-linejoin="round" stroke-miterlimit="10" d="
		M25.5,133.3c10.8-1.4,21.2,0.9,31.5,3.9c1.9,0.6,3.2,0.1,2.6,3.1c-1.5,6.9,0,14,0.6,21c0.2,2.9-1.1,2.3-2.2,1.9
		c-3.6-1.2-7.3-1.9-11-2.6c-8.3-1.5-15.2,0.1-21.6,5.6c-2.6,2.3-2.2,4.2-0.5,6.6"/>
	<path fill="none" stroke-width="2" stroke-linecap="round" stroke-linejoin="round" stroke-miterlimit="10" d="
		M474,321.2c0.1,2.6,2.3,3.2,3.9,4.6c9.1,7.6,20.2,12.7,27.6,22.4c7.9,10.4,8.2,23.4-0.5,32c-1.3,1.3-2.6,2.4-4.5,2.5"/>
	<path fill="none" stroke-width="2" stroke-linecap="round" stroke-linejoin="round" stroke-miterlimit="10" d="
		M228.5,36.3c-3.3,0-6.7,0.1-10,0c-2.9-0.1-3.8,1.5-4,4c-0.3,2.9,1.8,2.3,3.5,2.5c6.1,0.8,7.2,2.1,6.5,7.5c-0.4,3-2.3,4-5,4
		c-2.3,0-5.5,0.9-4.7-3.5"/>
	<path fill="none" stroke-width="2" stroke-linecap="round" stroke-linejoin="round" stroke-miterlimit="10" d="
		M591.5,327.2c-8.9,0.5-17.3-2.7-26-3.5c-9.3-0.9-18.7-1.7-28-2.4c-1.6-0.1-2.8-0.7-4-1.6"/>
	<path fill="none" stroke-width="2" stroke-linecap="round" stroke-linejoin="round" stroke-miterlimit="10" d="
		M562,257.2c-1.7,4.5,1.2,9,0.1,13.5c-0.3,1.4,1.5,1.9,2.9,2c6,0.2,9.6-4.7,8-11c-1.2-4.9-4-6.7-9-5.4c-1.8,0.5-3.1,0.1-4.5-0.6"/>
	<path fill="none" stroke-width="2" stroke-linecap="round" stroke-linejoin="round" stroke-miterlimit="10" d="
		M483,400.7c1.7-1.7,3.3-3.4,4.6-5.5c0.8-1.3,1.4-2.2,0.4-3.5c-1.1-1.5-2.6-1-4-0.5c-0.7,0.3-1.5,0.8-2,1.5
		c-4.5,6.4-10.4,4.5-16,2.4c-8.9-3.4-17-1.1-25,2.6c-5.8,2.7-11.4,6-17,8.9c-2.2,1.2-5,0.2-7,2"/>
	<path fill="none" stroke-width="2" stroke-linecap="round" stroke-linejoin="round" stroke-miterlimit="10" d="
		M455,276.2c-6.4,0.3-12.6,1.3-18.5,4c-9.1,4.1-15.7,10.8-20.9,19.1c-0.6,1-1.3,1.1-2.1,1.5"/>
	<path fill="none" stroke-width="2" stroke-linecap="round" stroke-linejoin="round" stroke-miterlimit="10" d="
		M639.4,298.2c-6.1-5.5-12.5-10.4-20-14c-6-2.9-12.4-4.3-19-5c-1.4-0.2-2.4,0.6-3.5,1"/>
	<path fill="none" stroke-width="2" stroke-linecap="round" stroke-linejoin="round" stroke-miterlimit="10" d="
		M47,74.3c-2-1.1-0.9-4.5-3.5-4.9c-1.6-0.3-4.4-0.6-4.8,0c-1.7,3.2-5.5,3.5-7.4,6.8c-8.4,14.6-15.8,29.5-18,46.6
		c-0.9,7.2-2.8,14.2-1.9,21.5c0.3,2.4,0.7,4.4,2.6,6"/>
	<path fill="none" stroke-width="2" stroke-linecap="round" stroke-linejoin="round" stroke-miterlimit="10" d="
		M642.4,296.2c-0.7,6.2-2.3,12.2-4.5,18c-3.2,8.4-5.7,17.1-11,24.5"/>
	<path fill="none" stroke-width="2" stroke-linecap="round" stroke-linejoin="round" stroke-miterlimit="10" d="
		M613.5,240.3c10.5,5,16.8,13.8,21.5,24c2.9,6.3,5.9,12.5,7,19.5c0.4,2.8,0.7,5.7,1,8.5"/>
	<path fill="none" stroke-width="2" stroke-linecap="round" stroke-linejoin="round" stroke-miterlimit="10" d="
		M243.5,193.8c3.4,4.1,1.9,9.4,3.7,14.1c3,7.8,7.2,14,14.3,18.4c2.6,1.6,5.3,3,8,4.5"/>
	<path fill="none" stroke-width="2" stroke-linecap="round" stroke-linejoin="round" stroke-miterlimit="10" d="
		M512.5,361.2c4.8,0.4,9.6-0.1,14.5,0.8c5.3,1,8.8,3.1,10.5,8.2c1.9,5.7,6.4,9.5,10,14"/>
	<path fill="none" stroke-width="2" stroke-linecap="round" stroke-linejoin="round" stroke-miterlimit="10" d="
		M139.5,32.8c2.2,5.8,2.5,11.4,0.6,17.5c-1.8,5.8-2.7,11.8-5,17.5c-0.8,2-4,3.5-2.1,6.4"/>
	<path fill="none" stroke-width="2" stroke-linecap="round" stroke-linejoin="round" stroke-miterlimit="10" d="
		M543.5,574.2c-1.2-0.3-2.3,0.3-3.5-0.5c-6.6-4.1-13.9-4.7-21.5-4.6c-3.4,0.1-6.2,1.7-8.9,3.2c-2.3,1.3-4.8,2.2-7.1,3.3"/>
	<path fill="none" stroke-width="2" stroke-linecap="round" stroke-linejoin="round" stroke-miterlimit="10" d="
		M340,219.8c-8.2-4.8-16.5-9.6-26-11.5c-11.7-2.3-22.3-1.2-31.1,8.3c-5.2,5.6-10.3,11-14.5,17.5c-6.6,10-7.7,19.9-2.8,30.6"/>
	<path fill="none" stroke-width="2" stroke-linecap="round" stroke-linejoin="round" stroke-miterlimit="10" d="
		M141,128.3c2.5,6.6,6.5,12.5,8.1,19.5c2.3,10.2,1,20.1-1.1,30c-0.2,0.9-1.1,2.2-2,2.4c-9.3,3-14.9,9.9-20,17.5
		c-0.5,0.7-0.6,2.1-1.9,2"/>
	<path fill="none" stroke-width="2" stroke-linecap="round" stroke-linejoin="round" stroke-miterlimit="10" d="
		M417.5,263.2c-4,7-4.5,14.9-6.5,22.5c-3.6,13.8,1.7,25.8,8.1,37.4c2.1,3.9,3.8,8.2,7.4,11"/>
	<path fill="none" stroke-width="2" stroke-linecap="round" stroke-linejoin="round" stroke-miterlimit="10" d="
		M281.5,101.8c0.1,5.8-1,11.2-3.7,16.6c-2,4-1.8,9.2-2.2,13.9c-0.3,3.2-0.3,6.4-2.6,9"/>
	<path fill="none" stroke-width="2" stroke-linecap="round" stroke-linejoin="round" stroke-miterlimit="10" d="
		M194,24.3c-3.8,12-9.3,23.2-16.5,33.5c-3.8,5.6-8.6,8.4-15.5,9.7c-18.8,3.5-37.1,8.9-54,18.3c-1.2,0.7-2.5,1.7-4,0.5"/>
	<path fill="none" stroke-width="2" stroke-linecap="round" stroke-linejoin="round" stroke-miterlimit="10" d="
		M535.5,252.7c-0.9-0.1-1.1-0.8-1.5-1.5c-3.5-5-8.2-4.9-11.4,0c-3.1,4.7,0,13,5,13.5c3.5,0.4,5.5-1.8,7-4.5"/>
	<path fill="none" stroke-width="2" stroke-linecap="round" stroke-linejoin="round" stroke-miterlimit="10" d="
		M235,138.8c0.2,1.8,0.3,3.7,0.5,5.5c0.3,2,1.4,2.9,3.5,3.1c2.5,0.2,2.7-1.6,2.9-3.1c0.5-3,2.1-5.9,0.5-9c-0.9-1.7-0.9-4.5-4-4
		c-2.8,0.4-3.7,2.6-4,5c-0.1,0.6,0.3,1.3,0.5,2"/>
	<path fill="none" stroke-width="2" stroke-linecap="round" stroke-linejoin="round" stroke-miterlimit="10" d="
		M349.5,99.8c-11.6,2-18.1,9.1-22.2,19.9c-2.6,6.7-2.3,12.5-0.5,19.2c2,6.9,0.6,14.3-0.4,21.4c-0.2,1.8-0.4,3.3,0.1,5"/>
	<path fill="none" stroke-width="2" stroke-linecap="round" stroke-linejoin="round" stroke-miterlimit="10" d="
		M98,139.8c-4-1.8-7.5,0.9-10.9,1.7c-7.7,1.8-14.8-0.2-22-1.8c-1.6-0.4-3-0.1-4.5-0.4"/>
	<path fill="none" stroke-width="2" stroke-linecap="round" stroke-linejoin="round" stroke-miterlimit="10" d="
		M415.5,264.2c-8.8,2.4-13.4,9.4-18,16.5c-3.9,6.1-4.4,13.1-4.9,20c-0.5,7.3-0.5,14.7,0,22c0.5,6.8,0.1,14,2.6,20.4
		c0.9,2.3-0.9,4.3,0.7,6.1"/>
	<path fill="none" stroke-width="2" stroke-linecap="round" stroke-linejoin="round" stroke-miterlimit="10" d="
		M233.5,73.3c-0.9,9.4-4.6,18-8.5,26.5c-1.4,3.1-3.4,6-4,9.5"/>
	<path fill="none" stroke-width="2" stroke-linecap="round" stroke-linejoin="round" stroke-miterlimit="10" d="
		M585.5,292.2c-5.3-3.5-6.8-3.2-9.5,2.5c-1.5,3.4-1.9,7,0,10.5c1.1,2.1,2.5,3.6,5.5,2.7c2.2-0.7,3.4-1.3,3.5-3.6
		c0-2.6-0.5-4.8-3.5-5.5c-0.4-0.1-0.7-0.3-1-0.5"/>
	<path fill="none" stroke-width="2" stroke-linecap="round" stroke-linejoin="round" stroke-miterlimit="10" d="
		M453,325.7c2.7,9.7,7.2,18.7,9.5,28.5c0.3,1.1,0.5,2.3,0.5,3.5c-0.1,4.2,1.6,9.4-0.8,12.2c-2.1,2.4-7.4,0.3-11.1,0.9
		c-10.7,1.7-21.9,1.9-31,8.9"/>
	<path fill="none" stroke-width="2" stroke-linecap="round" stroke-linejoin="round" stroke-miterlimit="10" d="
		M485.5,541.7c6.4,2.3,12.8,3.1,19.5,0.6c4.4-1.6,8.8-1.8,13.1,1.3c1.4,1,4.7,1,6.3,0c5.5-3.4,10.9-1.7,16-0.2
		c5.5,1.6,10.7,3.8,16.1-0.1c1.1-0.8,1.8,0.2,2.5,1c2.3,2.3,3.6,5.2,5,8"/>
	<path fill="none" stroke-width="2" stroke-linecap="round" stroke-linejoin="round" stroke-miterlimit="10" d="
		M554,239.8c-3.3,11.3-3.7,22.9-2,34.5"/>
	<path fill="none" stroke-width="2" stroke-linecap="round" stroke-linejoin="round" stroke-miterlimit="10" d="
		M663.4,384.7c-3.2,4.6-1.3,10.1-2.9,15c-1.5,4.7-4.2,8.3-7.6,11.4c-2,1.9-7.4,0.6-9.5-2"/>
	<path fill="none" stroke-width="2" stroke-linecap="round" stroke-linejoin="round" stroke-miterlimit="10" d="
		M440.5,314.2c1.2,3.3,3.3,4.4,6.5,2.5c3.1-1.8,3.3-4.3,1.4-7c-1-1.4-1.4-2.6-0.4-4c1.8-2.7,1.7-5.5-1.6-6.4c-3.4-0.9-5,1.5-5,4.8"
		/>
	<path fill="none" stroke-width="2" stroke-linecap="round" stroke-linejoin="round" stroke-miterlimit="10" d="
		M360.5,152.8c-11.3-0.2-21.2,3.1-30.1,10.4c-9.8,8-13.8,18.6-15.5,30.6c-0.6,3.9,0.2,7.7,0.1,11.5"/>
	<path fill="none" stroke-width="2" stroke-linecap="round" stroke-linejoin="round" stroke-miterlimit="10" d="
		M250,33.3c-4.1,9.6-9.4,18.8-12,29c-0.3,1.3-0.7,2.7-1,4"/>
	<path fill="none" stroke-width="2" stroke-linecap="round" stroke-linejoin="round" stroke-miterlimit="10" d="
		M379.5,351.2c-5.3,1.8-4.6,6.4-5,10.5c-0.8,9,2.5,17.6,3,26.5c0.4,6.3,4.1,11.7,4.5,18c0.2,3.4,1,6.7,1.5,10"/>
	<path fill="none" stroke-width="2" stroke-linecap="round" stroke-linejoin="round" stroke-miterlimit="10" d="
		M597.5,329.7c21.2,4.2,38.9,14.7,54,30c1.5,1.5,2.8,3.2,4,5c0.8,1.2,1.3,2.7,3,1.9c1.6-0.7,0.6-2.2,0.6-3.4
		c0-7.4-0.1-14.7,2.2-22.1c1.8-5.8,5.9-7.7,10.3-9.9c4.2-2.1,8.9-2.6,13.5-3"/>
	<path fill="none" stroke-width="2" stroke-linecap="round" stroke-linejoin="round" stroke-miterlimit="10" d="
		M601,597.2c1.5,3.1,1.2,6.2,0.6,9.5c-1.5,8.4,1.5,16.4,3.1,24.4c0.3,1.7,0.5,3.4,0.8,5"/>
	<path fill="none" stroke-width="2" stroke-linecap="round" stroke-linejoin="round" stroke-miterlimit="10" d="
		M475.5,272.2c3.6-1.5,7.3,0.5,11-0.4c4.7-1.2,6.6-3.1,6.5-8.1c-0.1-4.5-3.1-8.3-7-8.4c-3.2-0.1-6.3,0.3-9.5,0.4"/>
	<path fill="none" stroke-width="2" stroke-linecap="round" stroke-linejoin="round" stroke-miterlimit="10" d="
		M592,398.7c8.6,3.3,16.2,8.2,24.2,12.7c7,4,15.1,7,23.8,4.8c1.3-0.3,2.2-1.1,3-2"/>
	<path fill="none" stroke-width="2" stroke-linecap="round" stroke-linejoin="round" stroke-miterlimit="10" d="
		M596.5,296.2c-0.8,2.8-1.5,5.7-2.5,8.5c-2.2,6-5.1,11.7-10.5,15.5c-2,1.4-3.8,2.8-4,5.5"/>
	<path fill="none" stroke-width="2" stroke-linecap="round" stroke-linejoin="round" stroke-miterlimit="10" d="
		M94.5,208.8c1.6,1.3,3.4,1.4,5,0.4c1.7-0.9,0.6-2.5,0.6-3.9c0.2-5-1.2-6.4-6.6-5.2c-6.5,1.4-13.3,1.2-19.9,1.7"/>
	<path fill="none" stroke-width="2" stroke-linecap="round" stroke-linejoin="round" stroke-miterlimit="10" d="
		M320,173.8c-4.9-2.4-10.2-3.9-15.5-4.9c-8-1.5-14.5,5.5-13.6,13.4c0.9,7.8,2.5,16-1.9,23.5"/>
	<path fill="none" stroke-width="2" stroke-linecap="round" stroke-linejoin="round" stroke-miterlimit="10" d="
		M274,147.8c4.3,4.2,5.4,10.1,8.4,15c2.7,4.3,4.3,9.3,8.1,13"/>
	<path fill="none" stroke-width="2" stroke-linecap="round" stroke-linejoin="round" stroke-miterlimit="10" d="
		M272.5,188.3c-1.1-1.6-2.1-4-4.5-3.4c-2.3,0.6-3.9,2.9-4.4,4.9c-0.8,3.4-1.6,7.1,0.4,10.4c0.9,1.5,2,3.2,4.4,3.1
		c2.7-0.1,3-2.4,4-4.1c1.1-1.9,0.7-3.5-1-5c-1.2-1.1-2.5-1.5-4-1.5"/>
	<path fill="none" stroke-width="2" stroke-linecap="round" stroke-linejoin="round" stroke-miterlimit="10" d="
		M418,382.7c-8,0.1-17.5,11.7-15,23.5"/>
	<path fill="none" stroke-width="2" stroke-linecap="round" stroke-linejoin="round" stroke-miterlimit="10" d="
		M443.5,268.2c2.3-3.6,4.7-6.9,9.5-7.7c1.4-0.2,4.2-1.6,3.5-4.3c-0.7-2.7-3.4-3.1-5.5-3.4c-2.6-0.4-3.5,1.6-3.7,3.9"/>
	<path fill="none" stroke-width="2" stroke-linecap="round" stroke-linejoin="round" stroke-miterlimit="10" d="
		M90,95.8c-4.8,3.9-10,7.2-14.6,11.4c-3.5,3.2-7.2,6.2-6.9,11.6"/>
	<path fill="none" stroke-width="2" stroke-linecap="round" stroke-linejoin="round" stroke-miterlimit="10" d="
		M509.5,440.2c0,9,0.5,18-0.5,27"/>
	<path fill="none" stroke-width="2" stroke-linecap="round" stroke-linejoin="round" stroke-miterlimit="10" d="
		M633,392.7c1.5-1,1.6-2,0-3c-13.3-8-26.9-15.4-43-15.5c-10.4-0.1-20.8,1.3-29.9,6.6c-5,2.9-10.5,5.4-14.7,9.8
		c-2.1,2.2-3.2,4.2-1.9,7.1"/>
	<path fill="none" stroke-width="2" stroke-linecap="round" stroke-linejoin="round" stroke-miterlimit="10" d="
		M32.5,153.3c1-0.2,1.4,0.4,2,1c1.5,1.5,3.1,1.6,4.5,0c1-1.2,1.1-3,0-3.9c-2.6-2.2-2.5-4.4-0.4-6.5c1.2-1.2,1.4-2.7,0.8-3.5
		c-0.7-1.1-2.4-1.1-3.9-1.1c-2.4,0-2.1,1.5-2,3c0,0.3-0.3,0.7-0.5,1"/>
	<path fill="none" stroke-width="2" stroke-linecap="round" stroke-linejoin="round" stroke-miterlimit="10" d="
		M105,48.8c-0.2,2.3,0.7,4.4,1.5,6.5c2.4,6.2-1.2,11.4-2.6,17c-0.8,3.2-4.8,2.5-6.9,4.3"/>
	<path fill="none" stroke-width="2" stroke-linecap="round" stroke-linejoin="round" stroke-miterlimit="10" d="
		M504,548.2c4.1,5.1,9.8,6.7,16,7c4.2,0.2,8.3-0.1,12.5,0.1c5.7,0.3,9.6-3.9,14.5-5.6c1.3-0.5,0.3-2.3,0.5-3.4"/>
	<path fill="none" stroke-width="2" stroke-linecap="round" stroke-linejoin="round" stroke-miterlimit="10" d="
		M87.8,34.3c0.6,2,0.8,4.1,2.2,6.1c3.2,4.8,1.6,10.5-3.4,12.4C74.1,57.4,62.9,63.9,52.3,72c-6.5,5-11,11.4-16.7,16.9
		c-1.3,1.2-2.4,3.2-2.1,5.4"/>
	<path fill="none" stroke-width="2" stroke-linecap="round" stroke-linejoin="round" stroke-miterlimit="10" d="
		M665.7,517.7c-0.4,5.8-4.3,9.5-8.4,12.9c-1.6,1.4-4.3,1-6.4-0.4c-6.4-4.3-8.3-10.4-4.9-17.5c1.1-2.2,1.4-4.3,1.4-6.5"/>
	<path fill="none" stroke-width="2" stroke-linecap="round" stroke-linejoin="round" stroke-miterlimit="10" d="
		M528,220c1.1,2.3,2.6,3.8,5.5,3.3c3.5-0.6,3-3.5,3.4-5.6c0.8-4.8-2.4-8.1-6.9-7.5"/>
	<path fill="none" stroke-width="2" stroke-linecap="round" stroke-linejoin="round" stroke-miterlimit="10" d="
		M28.5,158.3c-1-8-1.8-16-3-24c-2-12.7,0.6-24.7,5-36.5c1.5-4.1,4.7-3,7-2.3c7.9,2.2,15.1,6,22,10.4"/>
	<path fill="none" stroke-width="2" stroke-linecap="round" stroke-linejoin="round" stroke-miterlimit="10" d="
		M615.5,268.7c-0.3-1.9-0.2-3.6,2-4.5c1.3-0.6,2.3-1.7,3.5-2.4c2.4-1.6,2.7-3.7,1.5-6c-1.6-2.9-4.4-2.4-6.7-1.4
		c-1.1,0.5-1.7,2-3.3,1.9"/>
	<path fill="none" stroke-width="2" stroke-linecap="round" stroke-linejoin="round" stroke-miterlimit="10" d="
		M40.5,195.8c2.5-3,5.2-4.4,9-2c4,2.5,8.9-0.1,13,2.5c3.9,2.4,7.9,4.6,11.6,7.4c7.7,5.9,16.3,10.8,26.4,11.6c5.5,0.4,8.7-2.4,9-7.4"
		/>
	<path fill="none" stroke-width="2" stroke-linecap="round" stroke-linejoin="round" stroke-miterlimit="10" d="
		M601.5,303.2c1.2-1.3-0.4-3.8,2.5-4.6c2.7-0.8,5-0.4,6.4,1.7c1.5,2.1,0.2,4-1.9,5.5c-2.4,1.6-5.6,2.3-6.9,5
		c-0.6,1.2-1.2,4.1,1.9,3.3c2.8-0.7,5.4,1.1,8,0.1"/>
	<path fill="none" stroke-width="2" stroke-linecap="round" stroke-linejoin="round" stroke-miterlimit="10" d="
		M126.5,109.8c-3.5,0.8-6.9,1.5-10.5,0.5c-0.9-0.3-2-0.5-2.5-1.5c1-0.3,0.1-1.6,1.4-2.1c2-0.8,3.7-2.5,5.5-3.9
		c1.7-1.2,2.8-3.3,1.8-4.9c-0.9-1.6-3.1-3.2-5.3-2.5c-2.1,0.7-4.2,2-2.5,4.9"/>
	<path fill="none" stroke-width="2" stroke-linecap="round" stroke-linejoin="round" stroke-miterlimit="10" d="
		M151,204.8c-0.5,1-0.8,2.3-1.5,2.9c-2.1,1.8-3.1,4.1-0.9,5.9c2.1,1.8,5,2.6,7.4,0.1c2.2-2.4,1.1-4.6-1-6.5c-0.3-0.3-0.7-0.7-1-1"/>
	<path fill="none" stroke-width="2" stroke-linecap="round" stroke-linejoin="round" stroke-miterlimit="10" d="
		M683.9,355.7c-1.7-1-1.5-3.1-2.5-4.5c-0.7-0.9-1.6-2.1-2.9-1.4c-0.9,0.5-1.9,1.6-1.9,2.4c-0.2,3.5-0.5,7.1,0,10.5
		c0.5,2.7,2.7,3.6,5.4,2c0.9-0.6,1.7-1.3,2.5-2"/>
	<path fill="none" stroke-width="2" stroke-linecap="round" stroke-linejoin="round" stroke-miterlimit="10" d="
		M304.5,105.8c8.3,5.4,13.4,13.6,19.5,21"/>
	<path fill="none" stroke-width="2" stroke-linecap="round" stroke-linejoin="round" stroke-miterlimit="10" d="
		M340,192.3c-2,2.6-8.8,4-11.5,2.5c-1.5-0.9-0.7-2.5-0.4-2.9c1.2-1.7,2.8-2.8,4.8-3.7c1.9-0.8,4.6-1.3,4.6-4.4c0-1.9-1.3-2.3-2.5-3
		c-3.2-1.7-4.8,0.5-6.5,2.5"/>
	<path fill="none" stroke-width="2" stroke-linecap="round" stroke-linejoin="round" stroke-miterlimit="10" d="
		M43,177.8c-0.5,4.9,2.5,9,6.9,10.6c1.7,0.7,2.7-0.1,3.5-0.7c3.6-2.8,8.2-4.2,11.1-7.9c0.5-0.6,1.3-0.9,2-1.3"/>
	<path fill="none" stroke-width="2" stroke-linecap="round" stroke-linejoin="round" stroke-miterlimit="10" d="
		M562.5,210.3c0.7,8.9-2.5,16.6-7,24"/>
	<path fill="none" stroke-width="2" stroke-linecap="round" stroke-linejoin="round" stroke-miterlimit="10" d="
		M371.5,492.2c0.7,3.8,0.7,7.9,2.2,11.4c1.8,4.5,6.2,6.2,10.8,7.1"/>
	<path fill="none" stroke-width="2" stroke-linecap="round" stroke-linejoin="round" stroke-miterlimit="10" d="
		M635.4,336.2c0.8-4,2.6-7.1,7-8c1.8-0.4,3.6-1,3.5-3.5c0-1.6,0.2-3.4-1.6-3.9c-1.9-0.6-3.8,0-5,1.9c-0.2,0.3-0.6,0.3-1,0.5"/>
	<path fill="none" stroke-width="2" stroke-linecap="round" stroke-linejoin="round" stroke-miterlimit="10" d="
		M114.5,165.8c0.5-3.9,4.6-4.4,6.5-7c1.4-2,1.8-4.5-0.1-5.9c-1.8-1.2-4.5-1.7-5.9,1.4c-0.5,1-1,2-1.5,3"/>
	<path fill="none" stroke-width="2" stroke-linecap="round" stroke-linejoin="round" stroke-miterlimit="10" d="
		M595.5,347.2c-5.5,6.7-9.4,14.2-10,23"/>
	<path fill="none" stroke-width="2" stroke-linecap="round" stroke-linejoin="round" stroke-miterlimit="10" d="
		M634.9,391.2c5.1,2.9,10.1,6,13.5,11c1.4,2.1,2.5,4.5,0.5,7"/>
	<path fill="none" stroke-width="2" stroke-linecap="round" stroke-linejoin="round" stroke-miterlimit="10" d="
		M553,280.2c-0.1,7.5,0.7,15.1-3.5,22"/>
	<path fill="none" stroke-width="2" stroke-linecap="round" stroke-linejoin="round" stroke-miterlimit="10" d="
		M553.5,345.2c-6.7,6.1-11.9,13.3-16.5,21"/>
	<path fill="none" stroke-width="2" stroke-linecap="round" stroke-linejoin="round" stroke-miterlimit="10" d="
		M491.5,429.7c-7.5,0.9-14,4.7-21,7"/>
	<path fill="none" stroke-width="2" stroke-linecap="round" stroke-linejoin="round" stroke-miterlimit="10" d="
		M328.5,78.3c-1.5,0.3-3-0.1-4.5,0.4c-1.6,0.5-3,0.5-3,2.6c0,2.2,1.6,2.5,3,2.4c3.4-0.2,5.2,1.4,6,4.6"/>
	<path fill="none" stroke-width="2" stroke-linecap="round" stroke-linejoin="round" stroke-miterlimit="10" d="
		M427,336.7c3.6,6.6,6,13.7,8,21"/>
	<path fill="none" stroke-width="2" stroke-linecap="round" stroke-linejoin="round" stroke-miterlimit="10" d="
		M270.5,11.3c-1.6,5-6.9,6.1-10.1,9.4c-3,3.1-6,6.1-8.4,9.6"/>
	<path fill="none" stroke-width="2" stroke-linecap="round" stroke-linejoin="round" stroke-miterlimit="10" d="
		M626.5,341.7c-5.7,11.2-9.2,23-10,35.5c-0.1,0.9-0.6,1.7-1,2.5"/>
	<path fill="none" stroke-width="2" stroke-linecap="round" stroke-linejoin="round" stroke-miterlimit="10" d="
		M110.5,16.8c1.8,2.5,3.5,5.1,5.5,7.5c3,3.5,5.5,7.2,7,11.5"/>
	<path fill="none" stroke-width="2" stroke-linecap="round" stroke-linejoin="round" stroke-miterlimit="10" d="
		M404,328.2c-0.2-0.2-0.3-0.4-0.5-0.5c-1.8-0.4-4.3,2.1-5.4-0.6c-1-2.5,1.7-3.6,3.4-4.9c0.2-0.2,0.8,0.1,1,0
		c1.8-1.4,3.4-3.5,2.3-5.4c-0.9-1.5-3.4-1.7-5.4-0.2c-0.5,0.4-1.4,0.5-1.9,1.1"/>
	<path fill="none" stroke-width="2" stroke-linecap="round" stroke-linejoin="round" stroke-miterlimit="10" d="
		M95,189.8c0-7.4-6.3-12.8-14-12"/>
	<path fill="none" stroke-width="2" stroke-linecap="round" stroke-linejoin="round" stroke-miterlimit="10" d="
		M59,137.3c1.9-5,2.4-10.5,5.5-15c1.8-2.7,9.4-5.1,12-3.5c2.6,1.6,1.9,5.3-1.5,7c-3.2,1.6-6.6,2.7-8,6.5c-0.2,0.5-1,0.7-1.5,1"/>
	<path fill="none" stroke-width="2" stroke-linecap="round" stroke-linejoin="round" stroke-miterlimit="10" d="
		M654.9,261.2c-1.2,6.3-3.4,12.5-1.5,19"/>
	<path fill="none" stroke-width="2" stroke-linecap="round" stroke-linejoin="round" stroke-miterlimit="10" d="
		M46,200.8c1-0.2,1.6-1.1,3-0.6c6.8,2.2,13.9,3.8,19.4,8.7c2.7,2.4,5.7,3.9,9.1,4.9"/>
	<path fill="none" stroke-width="2" stroke-linecap="round" stroke-linejoin="round" stroke-miterlimit="10" d="
		M548.5,304.2c-1.9,6.5-6.4,10.6-12.5,12.9c-1.1,0.4-1.7,1-2.5,1.6"/>
	<path fill="none" stroke-width="2" stroke-linecap="round" stroke-linejoin="round" stroke-miterlimit="10" d="
		M30,280.7c1.1,5.8,1,11.6,0.1,17.5c-0.8,4.9,2.4,8,8.9,9.5c4.5,1,9,2,13.5,3"/>
	<path fill="none" stroke-width="2" stroke-linecap="round" stroke-linejoin="round" stroke-miterlimit="10" d="
		M463,370.7c6.3,1.7,13,1.5,19,4.4c4.6,2.3,8.8,5.1,13,8c4.8,3.2,3.2,7.7,3,12"/>
	<path fill="none" stroke-width="2" stroke-linecap="round" stroke-linejoin="round" stroke-miterlimit="10" d="
		M62.5,81.3c3.8-1.4,6.9-0.3,8.9,3c1.6,2.5,0.2,11.3-2,12.9c-1.7,1.2-4.3,1.9-5.9,0.9c-2.6-1.7-4.7-0.7-7.1-0.3"/>
	<path fill="none" stroke-width="2" stroke-linecap="round" stroke-linejoin="round" stroke-miterlimit="10" d="
		M131.5,152.3c-2.8,3.3-3.8,10.8-2,14c1.3,2.3,3,3,5,1.4c4.3-3.4,3.1-12.6-2-15.5"/>
	<path fill="none" stroke-width="2" stroke-linecap="round" stroke-linejoin="round" stroke-miterlimit="10" d="
		M66.5,165.3c1.3,2.5,3.5,3.7,6,4.5c0.5,0.2,1,0.7,1.5,1c3,1.3,6.9,2.1,6.4,6.5c-0.4,3.6-5.4,6.9-9.9,7"/>
	<path fill="none" stroke-width="2" stroke-linecap="round" stroke-linejoin="round" stroke-miterlimit="10" d="
		M24,205.3c2.3,0,4.8,0.4,4.1-3.5c-0.4-2.2,2.4-2.8,3.4-4.5c0.6-1.1,3.2-1.4,1.5-3.5c-1.4-1.8-3-2-5-1c-1.1,0.5-1.9,1.2-2,2.5"/>
	<path fill="none" stroke-width="2" stroke-linecap="round" stroke-linejoin="round" stroke-miterlimit="10" d="
		M629,371.7c3.5,0.2,3.6,3.1,4,5.5c0.3,2-0.9,3.4-2.5,3.9c-1.5,0.5-3.4,0.4-4-1.9c-0.4-1.3-1.1-2.6-3-2"/>
	<path fill="none" stroke-width="2" stroke-linecap="round" stroke-linejoin="round" stroke-miterlimit="10" d="
		M581.5,231.3c-6.4,0.9-12.5,2.5-18,6"/>
	<path fill="none" stroke-width="2" stroke-linecap="round" stroke-linejoin="round" stroke-miterlimit="10" d="
		M54.5,111.3c-2-2.8-3.6-3.2-5.5-1.5c-3.7,3.3-3.3,7.6,1,11"/>
	<path fill="none" stroke-width="2" stroke-linecap="round" stroke-linejoin="round" stroke-miterlimit="10" d="
		M477,397.7c4.5,3.9,9.4,6.7,15.5,7c3.2,0.2,6.4,0.1,8.5-3"/>
	<path fill="none" stroke-width="2" stroke-linecap="round" stroke-linejoin="round" stroke-miterlimit="10" d="
		M546.5,488.2c3.6,8.5,2,18.1,6,26.5c0.2,0.4,0.6,0.7,1,1"/>
	<path fill="none" stroke-width="2" stroke-linecap="round" stroke-linejoin="round" stroke-miterlimit="10" d="
		M510.5,384.2c0-2.7,1.1-4.1,4-4c2,0.1,4,0.3,4.4,2.5c0.5,2.2,0.2,4.3-2.4,5.6c-2,1-3.7,2.5-5.5,4c-0.5,0.4-0.7,1.3-1,2
		c0.8,0.3,1.8,1.1,2.5,0.9c2.7-0.9,5.4-0.1,8-0.4"/>
	<path fill="none" stroke-width="2" stroke-linecap="round" stroke-linejoin="round" stroke-miterlimit="10" d="
		M494.5,293.2c-4.2-3.3-7.4-3-8.3,1.5c-0.7,3.6-2.2,7.8,1.1,11.6c2.2,2.5,3.9,1.5,6.1,0.9c2.3-0.7,1.4-2.6,1.4-4
		c0-2.5-1.4-3.9-3.9-4c-1.3,0-2.8-0.6-4,0.5"/>
	<path fill="none" stroke-width="2" stroke-linecap="round" stroke-linejoin="round" stroke-miterlimit="10" d="
		M560,293.2c-1-3.2,2-3.2,3.6-3.9c1.7-0.8,3.1,0.6,4.5,1.9c1.6,1.5,0.9,4,0.4,4.4c-3.3,2.2-1.4,3.6,0,5.7c2.3,3.4-1.2,5.1-3,5.7
		c-1.8,0.6-5.7,1.9-5.9-2.7"/>
	<path fill="none" stroke-width="2" stroke-linecap="round" stroke-linejoin="round" stroke-miterlimit="10" d="
		M191.5,89.3c1.7,0,3.3,0,5,0c3.5-0.1,4.4,2.1,4.5,5c0.1,3.1-1.3,4.3-4.5,4.1c-4-0.3-8-0.1-12-0.1"/>
	<path fill="none" stroke-width="2" stroke-linecap="round" stroke-linejoin="round" stroke-miterlimit="10" d="
		M664.4,354.2c0.6-1.7,0.6-3.8,3.5-3.6c1.5,0.1,3,0.3,3.4,1.6c0.4,1.4,0.2,4-0.5,4.3c-4.5,2.1-6.4,7.2-10.9,9.2"/>
	<path fill="none" stroke-width="2" stroke-linecap="round" stroke-linejoin="round" stroke-miterlimit="10" d="
		M41,173.3c-3-0.5-6-1.2-9-1.4c-2.9-0.2-5.3,0.2-6.7,3.9c-1.3,3.4-0.8,5.6,1.7,7.5c2.6,2.1,4.9,4.7,8.5,5"/>
	<path fill="none" stroke-width="2" stroke-linecap="round" stroke-linejoin="round" stroke-miterlimit="10" d="
		M557.5,440.2c5.6,1.5,11.2,2.2,17,1"/>
	<path fill="none" stroke-width="2" stroke-linecap="round" stroke-linejoin="round" stroke-miterlimit="10" d="
		M436,385.5c-2.9-0.4-1.3,1.8-1.4,2.8c-0.1,1.6-0.4,3.8-2.1,3.3c-3.5-0.9-7.4,0.6-10.5-1.8"/>
	<path fill="none" stroke-width="2" stroke-linecap="round" stroke-linejoin="round" stroke-miterlimit="10" d="
		M573.5,328.7c-6.8,2.3-11.3,7.5-16,12.5"/>
	<path fill="none" stroke-width="2" stroke-linecap="round" stroke-linejoin="round" stroke-miterlimit="10" d="
		M80.5,78.3c3.3,5.9,8.1,10.9,10,17.5"/>
	<path fill="none" stroke-width="2" stroke-linecap="round" stroke-linejoin="round" stroke-miterlimit="10" d="
		M76,34.3c3.5,3.5,1.8,8,1.8,12c0,1.7-2.6,1.5-4.3,1.5"/>
	<path fill="none" stroke-width="2" stroke-linecap="round" stroke-linejoin="round" stroke-miterlimit="10" d="
		M32,113.3c1.3-1.7,0.3-5.2,4-5c1.2,0.1,2.6-0.5,3.5,1c0.8,1.3,0.9,2.7,0,4c-0.9,1.2-2.6,2.1-1,4c2.2,2.6,3,5.4-0.5,7.4
		c-3.5,2-5.2-0.6-6.5-3.4"/>
	<path fill="none" stroke-width="2" stroke-linecap="round" stroke-linejoin="round" stroke-miterlimit="10" d="
		M657.9,367.7c0.9,4.6,3.5,8.7,4.1,13.5c0.5,3.7,4.7,4.6,6.6,7.4c1.2,1.8,3.9,2.8,5.9,4.1"/>
	<path fill="none" stroke-width="2" stroke-linecap="round" stroke-linejoin="round" stroke-miterlimit="10" d="
		M610,237.8c-5.1-3.2-10.3-6.3-16.5-7"/>
	<path fill="none" stroke-width="2" stroke-linecap="round" stroke-linejoin="round" stroke-miterlimit="10" d="
		M562.5,385.2c0.7-1.2,1.9-1,3-1c1.6-0.1,3.3,0.1,3.9,1.6c0.6,1.4-1.1,2.4-1.9,3.5c-0.5,0.6-1.3,0.8-1.9,1.1c-1.1,0.7-2.8,1.7-2,3.4
		c0.7,1.5,2.8,1.5,3.8,0.9c1.2-0.7,3,0.6,3.6-1.4"/>
	<path fill="none" stroke-width="2" stroke-linecap="round" stroke-linejoin="round" stroke-miterlimit="10" d="
		M471.2,306c1.8,2.8,4,3,6.8,1.3c2.6-1.7,1.6-3.6,0.5-5.5c-1.1-1.9-1.3-3.5,0.3-5.6c1-1.3,0.3-4.1-2.3-4.8c-2.2-0.6-4.8-1.7-5.5,2"
		/>
	<path fill="none" stroke-width="2" stroke-linecap="round" stroke-linejoin="round" stroke-miterlimit="10" d="
		M117,50.5c0.9-0.5,1.5,0.2,1.5,0.7c-0.2,5.3,1,10.8-1,16"/>
	<path fill="none" stroke-width="2" stroke-linecap="round" stroke-linejoin="round" stroke-miterlimit="10" d="
		M156,5.8c0.3,5.2,1.6,10.3,1,15.5c-0.2,1.8,1.2,2.1,2.5,2.5"/>
	<path fill="none" stroke-width="2" stroke-linecap="round" stroke-linejoin="round" stroke-miterlimit="10" d="
		M132,95.3c0,5.3,0,10.7,0,16"/>
	<path fill="none" stroke-width="2" stroke-linecap="round" stroke-linejoin="round" stroke-miterlimit="10" d="
		M155.5,40.3c-1.7,3-1.8,6.2-1.1,9.5c0.5,2.1,0.4,4.3,0.6,6.5"/>
	<path fill="none" stroke-width="2" stroke-linecap="round" stroke-linejoin="round" stroke-miterlimit="10" d="
		M38.5,265.2c7.5,2.1,11,8.1,14,14.5c2,4.2,4.5,8.3,8,11.5"/>
	<path fill="none" stroke-width="2" stroke-linecap="round" stroke-linejoin="round" stroke-miterlimit="10" d="
		M406,251.2c2.4,2.5,1.2,5.6,1.5,8.5c0.2,2.5-0.5,5.1,0.5,7.5"/>
	<path fill="none" stroke-width="2" stroke-linecap="round" stroke-linejoin="round" stroke-miterlimit="10" d="
		M597.5,354.2c4.4,1,6.2,3.6,5,7.5c-1,2.9-3.1,3.4-6,2.6c-1.5-0.4-0.9-1.5-1.5-2.1"/>
	<path fill="none" stroke-width="2" stroke-linecap="round" stroke-linejoin="round" stroke-miterlimit="10" d="
		M495.5,396c4.6,0.2,8.5,3.3,9.9,8.3c0.4,1.5,0.6,3,0.9,4.5c0.7,3.5-1.6,4.7-4.8,4.5"/>
	<path fill="none" stroke-width="2" stroke-linecap="round" stroke-linejoin="round" stroke-miterlimit="10" d="
		M425.5,355.2c-2,3.4-0.9,8-4.9,10.6c-1.4,0.9-2.5,1.4-4.1,1.4"/>
	<path fill="none" stroke-width="2" stroke-linecap="round" stroke-linejoin="round" stroke-miterlimit="10" d="
		M425.5,303.2c2.5-1,3.6-5.2,7.5-3c2.1,1.2,2.9,4.2,0.9,6c-2.5,2.2-5.3,4-7.9,6.1c-0.9,0.7-2.5,1.7-1.9,2.9c0.5,0.9,2.2,1.4,3.4,1.5
		c4.8,0.5,9.2-0.8,13.5-2.9"/>
	<path fill="none" stroke-width="2" stroke-linecap="round" stroke-linejoin="round" stroke-miterlimit="10" d="
		M63.5,321.2c-0.2-4.5-3.4-7.4-6.1-10.4c-1.2-1.3-3.8-1.2-4.8,0.5c-2.6,4.2-6.8,5.1-11.1,5.9c-1.6,0.3-2.1,1.8-3.5,2.1"/>
	<path fill="none" stroke-width="2" stroke-linecap="round" stroke-linejoin="round" stroke-miterlimit="10" d="
		M65,63.8c0.9,2.8,3.4,4,5.5,5.5c2.9,2.1,5.8,4.4,7,8"/>
	<path fill="none" stroke-width="2" stroke-linecap="round" stroke-linejoin="round" stroke-miterlimit="10" d="
		M301.5,140.3c3.2-1.9,3.4-4.6,0.9-6.9c-2.5-2.3-5.2-1.5-7.4,0.9"/>
	<path fill="none" stroke-width="2" stroke-linecap="round" stroke-linejoin="round" stroke-miterlimit="10" d="
		M296.5,196.3c1.9-0.9,2.7-2.4,3-4.5c0.4-2.6,1.3-5,3-7c0.6-0.7,1.6-3.1,2.5,0c1.3,4.5,3.4,8.7,3.5,13.5"/>
	<path fill="none" stroke-width="2" stroke-linecap="round" stroke-linejoin="round" stroke-miterlimit="10" d="
		M49.5,146.3c2.5,1.3,3.9,4.2,3,6.5c-1.1,2.8-3.8,1.6-5.5,1.3c-2.5-0.4-2.4-2.3-0.5-3.8"/>
	<path fill="none" stroke-width="2" stroke-linecap="round" stroke-linejoin="round" stroke-miterlimit="10" d="
		M540,286.2c-0.9,6.3-3.6,12-5.5,18"/>
	<path fill="none" stroke-width="2" stroke-linecap="round" stroke-linejoin="round" stroke-miterlimit="10" d="
		M226.5,132.3c-0.2,5-0.3,10-0.5,15"/>
	<path fill="none" stroke-width="2" stroke-linecap="round" stroke-linejoin="round" stroke-miterlimit="10" d="
		M212.5,161.3c-1.3,5.3-2.7,10.7-4,16"/>
	<path fill="none" stroke-width="2" stroke-linecap="round" stroke-linejoin="round" stroke-miterlimit="10" d="
		M112.5,195.3c-0.8-0.2-1.7,0.3-2.5-0.5c-8.8-7.7-17.9-5.1-27-0.5c-1,0.5-2,0.8-3,1.3"/>
	<path fill="none" stroke-width="2" stroke-linecap="round" stroke-linejoin="round" stroke-miterlimit="10" d="
		M125,55.3c0.5-5.5,1.3-6.3,5.5-5.5c2,0.4,2.6,1.1,1.5,3c-2.4,4-3.9,8.4-4.8,13"/>
	<path fill="none" stroke-width="2" stroke-linecap="round" stroke-linejoin="round" stroke-miterlimit="10" d="
		M437.5,349.2c-0.1-1.9,0-3.8,2.5-4c1.2-0.1,2.6-0.5,3.5,1c1.2,1.7,0.4,3.3-0.6,4.5c-1.7,1.8-0.5,2.7,0.5,4.1
		c1.7,2.2,1.7,4.4-0.5,6.5c-3.2,3-3.8-1-5.5-2"/>
	<path fill="none" stroke-width="2" stroke-linecap="round" stroke-linejoin="round" stroke-miterlimit="10" d="
		M449.5,356.2c0.5,1.6-1.2,3.6,1,5c2,1.4,3.4-0.4,4.4-1.2c1.6-1.2,2.4-3.2,1.1-5.4c-0.7-1.2-1-2.3-0.7-4c0.5-2.4,0.7-5.5-3.4-5.5
		c-4.3,0-1.8,3.3-2.5,5"/>
	<path fill="none" stroke-width="2" stroke-linecap="round" stroke-linejoin="round" stroke-miterlimit="10" d="
		M47,58.8c2.4,2.5,5.7,1.5,8.5,2.6c2,0.8,4.6,0.7,6,2.9"/>
	<path fill="none" stroke-width="2" stroke-linecap="round" stroke-linejoin="round" stroke-miterlimit="10" d="
		M479,379.2c-2.8,0.9-5.1-1.2-8-1.3c-5.8-0.1-9.8,4.1-15,4.8"/>
	<path fill="none" stroke-width="2" stroke-linecap="round" stroke-linejoin="round" stroke-miterlimit="10" d="
		M631,371.7c0.3-2.2,2.9-4.1,1-6.5c-2.5-3-3.7-2.8-6.5,1"/>
	<path fill="none" stroke-width="2" stroke-linecap="round" stroke-linejoin="round" stroke-miterlimit="10" d="
		M58.5,80.3c2.2-0.2,3.3,0.3,3.1,3c-0.3,4.5-0.1,9-0.1,13.5"/>
	<path fill="none" stroke-width="2" stroke-linecap="round" stroke-linejoin="round" stroke-miterlimit="10" d="
		M254,235.3c-0.4-6.2-2.3-8.7-10-6"/>
	<path fill="none" stroke-width="2" stroke-linecap="round" stroke-linejoin="round" stroke-miterlimit="10" d="
		M558.5,356.7c1,0.3,2.2-0.8,2.7,1.5c0.6,2.7,3.1,3.8,5.8,2c2.6-1.7,2.8-4.3,0.9-6.4c-1.8-1.9-1.9-2.8,0-4.7
		c1.4-1.5,2.1-4.2-0.5-5.3c-1.8-0.8-4.7-2.3-5.9,1.4"/>
	<path fill="none" stroke-width="2" stroke-linecap="round" stroke-linejoin="round" stroke-miterlimit="10" d="
		M513.5,333.2c1.3-2.8,4-2.3,6-1.9c3,0.7,3,3.1,1.5,5.3c-1.1,1.6-3.2,2.9-0.9,5c2.1,2,3.3,4.3,0.9,6.4c-2.4,2.1-5,1.1-6.9-1.4"/>
	<path fill="none" stroke-width="2" stroke-linecap="round" stroke-linejoin="round" stroke-miterlimit="10" d="
		M436.5,358.7c-2.6-2.1-2,0.3-2,1.5c0.3,4.2,0.6,8.3,1,12.5"/>
	<path fill="none" stroke-width="2" stroke-linecap="round" stroke-linejoin="round" stroke-miterlimit="10" d="
		M609.5,354.7c1.8,0.1,3.9,1.3,5.1-1.5c0.7-1.7,1.6-3.4,0.4-5c-1.3-1.5-3.2-1.5-4.9-0.5c-0.9,0.4-1.7,1-2.5,1.5"/>
	<path fill="none" stroke-width="2" stroke-linecap="round" stroke-linejoin="round" stroke-miterlimit="10" d="
		M481,256.7c-1.2,4.7,0.2,9.3,0,14"/>
	<path fill="none" stroke-width="2" stroke-linecap="round" stroke-linejoin="round" stroke-miterlimit="10" d="
		M254,239.3c0.3,5.1-0.4,5.9-5,6c-1.5,0-3-0.3-4.5-0.5"/>
	<path fill="none" stroke-width="2" stroke-linecap="round" stroke-linejoin="round" stroke-miterlimit="10" d="
		M67.5,154.3c3.6-1.5,5,0.7,5.4,3.5c0.4,2.7,0.9,6.4-2.9,6.8c-2.7,0.3-6,2.3-8.5-0.8"/>
	<path fill="none" stroke-width="2" stroke-linecap="round" stroke-linejoin="round" stroke-miterlimit="10" d="
		M430,256.2c0.2-1.6,1.1-2.4,2.5-3c2.4-1,4.7-0.8,5.9,1.5c1.2,2.4,0.6,4.5-2.4,5.5c-4.1,1.4-7.6,3.7-10.5,7"/>
	<path fill="none" stroke-width="2" stroke-linecap="round" stroke-linejoin="round" stroke-miterlimit="10" d="
		M577,393.5c1.8-1.5,0.2-4.5,2.5-5.7c-0.8-1,1.5-2,0-3c-0.9-0.6-1.6-0.9-3-0.7c-2.7,0.5-1,2.2-1.5,3.2"/>
	<path fill="none" stroke-width="2" stroke-linecap="round" stroke-linejoin="round" stroke-miterlimit="10" d="
		M474,357.2c0,2.2-0.5,4.8,2,5.9c1.1,0.5,2.7,0.5,4-0.8c2.4-2.4,2.5-4.7,0.4-7c-1.2-1.3-2-2.5-0.9-4c1.2-1.5,2.7-2.7,0.5-4.5
		c-2.5-2-4.2-0.8-5.5,1.5c-0.2,0.3-0.3,0.7-0.5,1"/>
	<path fill="none" stroke-width="2" stroke-linecap="round" stroke-linejoin="round" stroke-miterlimit="10" d="
		M90,64.8c0,3.2-0.8,6.4-4,7.3c-3.1,0.9-2.3,2.8-2.5,4.7"/>
	<path fill="none" stroke-width="2" stroke-linecap="round" stroke-linejoin="round" stroke-miterlimit="10" d="
		M529.5,334.2c1.1-2.3,2.9-3.6,5.5-2.9c1.9,0.5,3.5,1.9,3.4,3.9c-0.1,2.5-1,5.4-3.4,5.8c-3.9,0.7-4.8,4.4-7.5,6.2"/>
	<path fill="none" stroke-width="2" stroke-linecap="round" stroke-linejoin="round" stroke-miterlimit="10" d="
		M495,204.8c0,7.8-1.3,15.6,0.3,23.5c0.7,3.7,3.1,6.4,3.7,10"/>
	<path fill="none" stroke-width="2" stroke-linecap="round" stroke-linejoin="round" stroke-miterlimit="10" d="
		M173,186.8c-4.3-5.2-10.1-6.9-16.5-7.5"/>
	<path fill="none" stroke-width="2" stroke-linecap="round" stroke-linejoin="round" stroke-miterlimit="10" d="
		M78,187.8c-1.2,4.6-5.7,4.5-9.1,5.9c-1.1,0.4-2.1,0.8-2.9,1.6"/>
	<path fill="none" stroke-width="2" stroke-linecap="round" stroke-linejoin="round" stroke-miterlimit="10" d="
		M275.5,61.3c1.1,0.4,1.7-0.5,2.5-1c2.9-1.7,5.7-1.8,7.4,1.5c1.8,3.4-0.7,4.6-3.4,5.5c-3.7,1.3-6.1,3.9-6.5,8"/>
	<path fill="none" stroke-width="2" stroke-linecap="round" stroke-linejoin="round" stroke-miterlimit="10" d="
		M392,334.7c-4-2.3-8.2-4-13-2.5"/>
	<path fill="none" stroke-width="2" stroke-linecap="round" stroke-linejoin="round" stroke-miterlimit="10" d="
		M71,212.3c-3.3,4.3-8.5,3.7-13,4.3c-3.5,0.4-6.1-4.7-5.9-10.3c0-1.2,0.5-2.3,0.7-3.5"/>
	<path fill="none" stroke-width="2" stroke-linecap="round" stroke-linejoin="round" stroke-miterlimit="10" d="
		M481.5,210.3c-3.1,4-3.3,9.1-5.5,13.5"/>
	<path fill="none" stroke-width="2" stroke-linecap="round" stroke-linejoin="round" stroke-miterlimit="10" d="
		M199,89.3c0.3-0.8,0.8-1.6,1-2.5c1.2-4.6-0.2-6.4-5-6.5c-2.8,0-5.7,0-8.5,0"/>
	<path fill="none" stroke-width="2" stroke-linecap="round" stroke-linejoin="round" stroke-miterlimit="10" d="
		M434.5,385.2c-4.4-1.3-8.7-1.9-13,0.5"/>
	<path fill="none" stroke-width="2" stroke-linecap="round" stroke-linejoin="round" stroke-miterlimit="10" d="
		M418.7,380.7c-1.4,2.7,2.3,3.2,2.2,5.2c0,2.3-0.3,4.5-0.5,6.7c-0.5,6.5-0.4,6.5-7,6.5"/>
	<path fill="none" stroke-width="2" stroke-linecap="round" stroke-linejoin="round" stroke-miterlimit="10" d="
		M596,334.2c-0.3,3,0.5,6-0.9,9c-1,2.1,0.4,3.8,2.4,4c7,0.7,7.6,1.9,4,8"/>
	<path fill="none" stroke-width="2" stroke-linecap="round" stroke-linejoin="round" stroke-miterlimit="10" d="
		M51.3,145.8c0.5-1.9,1.8-3.7-0.2-5.5c-2.7-2.3-4.3-0.2-6,1.5"/>
	<path fill="none" stroke-width="2" stroke-linecap="round" stroke-linejoin="round" stroke-miterlimit="10" d="
		M24.5,132.8c-4.6-0.3-7.9,3.7-12.5,3.5"/>
	<path fill="none" stroke-width="2" stroke-linecap="round" stroke-linejoin="round" stroke-miterlimit="10" d="
		M331.5,88.3c-1.5-0.1-1.9,0.5-2.1,2c-0.2,2.9-2.8,3.6-5,3.9c-2.2,0.4-3.3-1.1-3-3.4"/>
	<path fill="none" stroke-width="2" stroke-linecap="round" stroke-linejoin="round" stroke-miterlimit="10" d="
		M294.5,41.3c2-1.2,4.8,1.4,6.4-1c1.1-1.6,2.3-3.3,1.1-5.5c-1.3-2.3-2.9-3.4-5.5-2"/>
	<path fill="none" stroke-width="2" stroke-linecap="round" stroke-linejoin="round" stroke-miterlimit="10" d="
		M617.5,382.2c-0.7,4.1-1.3,8.3,1.5,12"/>
	<path fill="none" stroke-width="2" stroke-linecap="round" stroke-linejoin="round" stroke-miterlimit="10" d="
		M470,379.7c-0.1,1.9,0.7,4.3-2.5,4.5c-3.4,0.3-3.3,3.2-4,5.5"/>
	<path fill="none" stroke-width="2" stroke-linecap="round" stroke-linejoin="round" stroke-miterlimit="10" d="
		M231.5,213.3c0.2,4,0.3,8,0.5,12"/>
	<path fill="none" stroke-width="2" stroke-linecap="round" stroke-linejoin="round" stroke-miterlimit="10" d="
		M441.5,393.2c-4.8-2-0.2-4.1,0.2-6c0.7-4,9.1-7.4,12.9-5.5c0.7,0.3,1.1,0.7,1,1.5c-0.2,1.3-0.8,2.6-2,2.9c-4,1.1-7.6,3.8-12,3.1"/>
	<path fill="none" stroke-width="2" stroke-linecap="round" stroke-linejoin="round" stroke-miterlimit="10" d="
		M427.5,266.7c4,0.9,8,0.5,12,0.5"/>
	<path fill="none" stroke-width="2" stroke-linecap="round" stroke-linejoin="round" stroke-miterlimit="10" d="
		M410.5,318.7c1.5,3.8,1.4,7.6,0.5,11.5"/>
	<path fill="none" stroke-width="2" stroke-linecap="round" stroke-linejoin="round" stroke-miterlimit="10" d="
		M491,346.7c-2.5,4.1,0.2,8.3-0.4,12.5c-0.4,2.7-0.5,4.9-4.1,4"/>
	<path fill="none" stroke-width="2" stroke-linecap="round" stroke-linejoin="round" stroke-miterlimit="10" d="
		M180,139.3c2.4,2.7,2.2,5.5,0,8c-1.8,2-4,1.3-5.9,0c-0.1,0-0.1-0.4,0-0.5c0.1-0.2,0.3-0.3,0.5-0.5"/>
	<path fill="none" stroke-width="2" stroke-linecap="round" stroke-linejoin="round" stroke-miterlimit="10" d="
		M635.9,398.2c-1.5,5-5,8-9.5,9.9c-2.1,0.9-4,1.9-5.5,3.6"/>
	<path fill="none" stroke-width="2" stroke-linecap="round" stroke-linejoin="round" stroke-miterlimit="10" d="
		M626.5,268.2c-3.2,3.4-7,0.3-10.5,1c-0.9,0.2-1.7,0.6-2.5,1"/>
	<path fill="none" stroke-width="2" stroke-linecap="round" stroke-linejoin="round" stroke-miterlimit="10" d="
		M195,2.8c0.2,3.8,0.3,7.7,0.5,11.5"/>
	<path fill="none" stroke-width="2" stroke-linecap="round" stroke-linejoin="round" stroke-miterlimit="10" d="
		M37,161.3c1.3,5.1,0.1,9.9-2,14.5"/>
	<path fill="none" stroke-width="2" stroke-linecap="round" stroke-linejoin="round" stroke-miterlimit="10" d="
		M268.5,59.3c-0.9,2.5-0.7,5-0.4,7.5c0.5,5-0.2,9.3-5.1,12"/>
	<path fill="none" stroke-width="2" stroke-linecap="round" stroke-linejoin="round" stroke-miterlimit="10" d="
		M104,75.3c2.9,6.5-0.6,14.3-7.5,17.1c-2,0.8-3.7,2.3-5.5,3.4"/>
	<path fill="none" stroke-width="2" stroke-linecap="round" stroke-linejoin="round" stroke-miterlimit="10" d="
		M594,212.8c0.8,4.5-0.3,8.8-1.7,13"/>
	<path fill="none" stroke-width="2" stroke-linecap="round" stroke-linejoin="round" stroke-miterlimit="10" d="
		M634.4,394.2c-1.5,0.3-3.4-0.8-4.1,2c-0.8,3.4,2.1,3.6,3.6,5"/>
	<path fill="none" stroke-width="2" stroke-linecap="round" stroke-linejoin="round" stroke-miterlimit="10" d="
		M608.5,359.2c-0.1,2.1,0,4.3,2.5,4.9c1,0.3,2.6,0.8,3.4-0.4c1.3-1.8,1.5-3.9,0.5-6c-0.4-0.8-0.7-1.7-1-2.5"/>
	<path fill="none" stroke-width="2" stroke-linecap="round" stroke-linejoin="round" stroke-miterlimit="10" d="
		M487,379.2c-0.2,3.7-2.5,7.2-1,11"/>
	<path fill="none" stroke-width="2" stroke-linecap="round" stroke-linejoin="round" stroke-miterlimit="10" d="
		M223,9.3c-0.3,4.5-0.7,9-1,13.5"/>
	<path fill="none" stroke-width="2" stroke-linecap="round" stroke-linejoin="round" stroke-miterlimit="10" d="
		M653.9,324.2c1.4,3.7-0.6,7.3,0,11"/>
	<path fill="none" stroke-width="2" stroke-linecap="round" stroke-linejoin="round" stroke-miterlimit="10" d="
		M247.5,93.3c-2.4,4.3-0.1,8.7,0,13c0,0.8,0,1.7,0,2.5"/>
	<path fill="none" stroke-width="2" stroke-linecap="round" stroke-linejoin="round" stroke-miterlimit="10" d="
		M493.5,490.7c-2.2,6.9-5.2,13.5-8.5,20"/>
	<path fill="none" stroke-width="2" stroke-linecap="round" stroke-linejoin="round" stroke-miterlimit="10" d="
		M299.5,232.3c1.9,1.8,3.1,4.6,2.4,7.5c-0.3,1.3-0.3,2.4,0.1,3.5"/>
	<path fill="none" stroke-width="2" stroke-linecap="round" stroke-linejoin="round" stroke-miterlimit="10" d="
		M23.5,145.3c0,3.7,0,7.3,0,11"/>
	<path fill="none" stroke-width="2" stroke-linecap="round" stroke-linejoin="round" stroke-miterlimit="10" d="
		M105,65.3c-1.3-2.5-3.2-3.4-6-3c-2,0.3-2.1,1.5-2,3"/>
	<path fill="none" stroke-width="2" stroke-linecap="round" stroke-linejoin="round" stroke-miterlimit="10" d="
		M508,424.7c0.3,3.5,0.7,7,1,10.5"/>
	<path fill="none" stroke-width="2" stroke-linecap="round" stroke-linejoin="round" stroke-miterlimit="10" d="
		M91.5,64.3c-1.9,0.4-2.5-1.8-4-2c-2.8-0.2-5.6-0.2-5,4"/>
	<path fill="none" stroke-width="2" stroke-linecap="round" stroke-linejoin="round" stroke-miterlimit="10" d="
		M518.5,294.7c3.4,1.2,4.6-1.1,6-3.5c1.6-2.7-1.1-3.3-2.1-3.9c-2.5-1.5-4.8-0.7-6.4,1.9"/>
	<path fill="none" stroke-width="2" stroke-linecap="round" stroke-linejoin="round" stroke-miterlimit="10" d="
		M166,13.8c-1.8,3.4-4.8,6.8-0.5,10.5"/>
	<path fill="none" stroke-width="2" stroke-linecap="round" stroke-linejoin="round" stroke-miterlimit="10" d="
		M277,73.8c3.5,1.1,7,0.2,10.5,0.5"/>
	<path fill="none" stroke-width="2" stroke-linecap="round" stroke-linejoin="round" stroke-miterlimit="10" d="
		M35.5,73.3c-0.2,4.1-0.1,8,4.5,10"/>
	<path fill="none" stroke-width="2" stroke-linecap="round" stroke-linejoin="round" stroke-miterlimit="10" d="
		M644.4,366.7c-1.3,0.4-2.7,0.7-3.5,2c-1.2,2-4.1,4.1-3.3,5.9c1.3,2.4,4.7,1.1,7.2,1.1"/>
	<path fill="none" stroke-width="2" stroke-linecap="round" stroke-linejoin="round" stroke-miterlimit="10" d="
		M466,209.3c0.2,5,0.3,10,0.5,15"/>
	<path fill="none" stroke-width="2" stroke-linecap="round" stroke-linejoin="round" stroke-miterlimit="10" d="
		M61.5,168.3c0.1,3.3-2.4,6.8,0.5,10"/>
	<path fill="none" stroke-width="2" stroke-linecap="round" stroke-linejoin="round" stroke-miterlimit="10" d="
		M84,119.8c1-0.8,1.9-2.2,3-2.3c1.2-0.1,2.9-1.9,4,0.4c0.6,1.3,1.7,2.5,0.5,4c-1.7,2.1-1.8,4-0.6,6.6c1,2.2,0.1,5-2.4,5.8
		c-2.1,0.7-4.1-0.6-5-2.9"/>
	<path fill="none" stroke-width="2" stroke-linecap="round" stroke-linejoin="round" stroke-miterlimit="10" d="
		M522,295.2c3.2,4.6,2.8,8.8-1,9.4c-2.3,0.4-4.5-0.1-3.5-3.4"/>
	<path fill="none" stroke-width="2" stroke-linecap="round" stroke-linejoin="round" stroke-miterlimit="10" d="
		M375.5,358.2c3.2,3,6.6,1.5,10,0.5"/>
	<path fill="none" stroke-width="2" stroke-linecap="round" stroke-linejoin="round" stroke-miterlimit="10" d="
		M556.5,384.7c1.7,2,0.9,4.3,1,6.5c0,1.8-0.1,3.7,1.1,4.9c2.7,2.7,0.5,5.3-0.3,7.5c-0.7,1.7-3.1,1-5.3,0.4c-2.3-0.6-5.3,0.4-7.9-0.3
		"/>
	<path fill="none" stroke-width="2" stroke-linecap="round" stroke-linejoin="round" stroke-miterlimit="10" d="
		M301,41.3c0.7,3,4.9,6.7-1.5,8.5"/>
	<path fill="none" stroke-width="2" stroke-linecap="round" stroke-linejoin="round" stroke-miterlimit="10" d="
		M624.5,393.2c-6.3,1-5.3,7.9-9,11c-1.2,1.1-2,2.6-3,4"/>
	<path fill="none" stroke-width="2" stroke-linecap="round" stroke-linejoin="round" stroke-miterlimit="10" d="
		M446,266.7c4.3,1.6,8.7-0.6,13,0.5"/>
	<path fill="none" stroke-width="2" stroke-linecap="round" stroke-linejoin="round" stroke-miterlimit="10" d="
		M168,14.3c2.5,2.8,5.7,5.6,1.5,9.5"/>
	<path fill="none" stroke-width="2" stroke-linecap="round" stroke-linejoin="round" stroke-miterlimit="10" d="
		M480.5,210.3c-1.8-0.8-3.7-0.4-5.5-0.5c-2.1-0.1-1.3,1.5-1.5,2.5"/>
	<path fill="none" stroke-width="2" stroke-linecap="round" stroke-linejoin="round" stroke-miterlimit="10" d="
		M256,92.3c0,5.4,1.5,10.6,1,16"/>
	<path fill="none" stroke-width="2" stroke-linecap="round" stroke-linejoin="round" stroke-miterlimit="10" d="
		M169,47.8c3.3,2.9,1.7,6.2,1,9.5"/>
	<path fill="none" stroke-width="2" stroke-linecap="round" stroke-linejoin="round" stroke-miterlimit="10" d="
		M519.5,206.3c-2,4.5,0.7,9,0.1,13.5c-0.4,2.9-0.7,4.9-4.1,4.5"/>
	<path fill="none" stroke-width="2" stroke-linecap="round" stroke-linejoin="round" stroke-miterlimit="10" d="
		M287,31.3c-1.5,5.1,0.8,10.3-0.4,15.5c-0.8,3.3,2,2.5,3.9,2.5"/>
	<path fill="none" stroke-width="2" stroke-linecap="round" stroke-linejoin="round" stroke-miterlimit="10" d="
		M352.5,141.3c-5.7-0.5-11.3-1.7-17-0.5"/>
	<path fill="none" stroke-width="2" stroke-linecap="round" stroke-linejoin="round" stroke-miterlimit="10" d="
		M536,402.7c-0.2,2.9-4.1,4.8-1.6,8.6c1.6,2.5-2,4.9-1.3,8.5c0.8,3.8,2.7,4.5,5.4,5.4"/>
	<path fill="none" stroke-width="2" stroke-linecap="round" stroke-linejoin="round" stroke-miterlimit="10" d="
		M557,395.2c-4.4,1-4.9,4.3-4.5,8"/>
	<path fill="none" stroke-width="2" stroke-linecap="round" stroke-linejoin="round" stroke-miterlimit="10" d="
		M67.5,215.8c-0.2,4.4-2.9,8.2-5.9,7.3c-2.9-0.9-5.6-0.2-6.3,1.4c-1.1,2.3,2.4,3.7,3.3,5.8c0.2,0.4,1.3,0.4,1.9,0.5"/>
	<path fill="none" stroke-width="2" stroke-linecap="round" stroke-linejoin="round" stroke-miterlimit="10" d="
		M428.5,400.7c-2.7-2.5-5.8-2.3-9-1.5"/>
	<path fill="none" stroke-width="2" stroke-linecap="round" stroke-linejoin="round" stroke-miterlimit="10" d="
		M608.5,269.2c-4,0.3-8,0.7-12,1"/>
	<path fill="none" stroke-width="2" stroke-linecap="round" stroke-linejoin="round" stroke-miterlimit="10" d="
		M650.4,380.7c-4.7,0.2-9.3,0.3-14,0.5"/>
	<path fill="none" stroke-width="2" stroke-linecap="round" stroke-linejoin="round" stroke-miterlimit="10" d="
		M234,239.3c0.1,4.7,4.4,6.6,6.5,10"/>
	<path fill="none" stroke-width="2" stroke-linecap="round" stroke-linejoin="round" stroke-miterlimit="10" d="
		M171.5,174.3c-0.1,3,0.5,6.1-1,9"/>
	<path fill="none" stroke-width="2" stroke-linecap="round" stroke-linejoin="round" stroke-miterlimit="10" d="
		M213.5,158.3c-0.2,0.8-0.3,1.7-0.5,2.5c-3.6-1.8-6.9,1.8-10.5,0.5"/>
	<path fill="none" stroke-width="2" stroke-linecap="round" stroke-linejoin="round" stroke-miterlimit="10" d="
		M581.5,212.3c-1.3,4.3,0.2,8.7-0.5,13"/>
	<path fill="none" stroke-width="2" stroke-linecap="round" stroke-linejoin="round" stroke-miterlimit="10" d="
		M645.9,364.2c0,5.3,0,10.7,0,16"/>
	<path fill="none" stroke-width="2" stroke-linecap="round" stroke-linejoin="round" stroke-miterlimit="10" d="
		M480,379c-0.7,3.2-1.4,6.4-3,9.2"/>
	<path fill="none" stroke-width="2" stroke-linecap="round" stroke-linejoin="round" stroke-miterlimit="10" d="
		M113.5,166.3c3.3,0.7,6.6,1.7,10,1.5"/>
	<path fill="none" stroke-width="2" stroke-linecap="round" stroke-linejoin="round" stroke-miterlimit="10" d="
		M472.5,389.2c-2.7,0.2-5.4-0.5-8,0.5"/>
	<path fill="none" stroke-width="2" stroke-linecap="round" stroke-linejoin="round" stroke-miterlimit="10" d="
		M523.5,394.2c3.7,1.3,7.3-0.4,11,0"/>
	<path fill="none" stroke-width="2" stroke-linecap="round" stroke-linejoin="round" stroke-miterlimit="10" d="
		M448,380.7c-1.1-3.5-3.9-2.9-6.5-2.5"/>
	<path fill="none" stroke-width="2" stroke-linecap="round" stroke-linejoin="round" stroke-miterlimit="10" d="
		M292.5,199.3c2.7,0,5.3,0,8,0"/>
	<path fill="none" stroke-width="2" stroke-linecap="round" stroke-linejoin="round" stroke-miterlimit="10" d="
		M89.5,164.3c-4.3-2-8.7,0.7-13,0"/>
	<path fill="none" stroke-width="2" stroke-linecap="round" stroke-linejoin="round" stroke-miterlimit="10" d="
		M189.5,81.3c0.3,5.3,1.8,10.6,0.5,16"/>
	<path fill="none" stroke-width="2" stroke-linecap="round" stroke-linejoin="round" stroke-miterlimit="10" d="
		M166,46.3c-2.8,3-3.4,6.3-1.5,10"/>
	<path fill="none" stroke-width="2" stroke-linecap="round" stroke-linejoin="round" stroke-miterlimit="10" d="
		M23,94.3c2.3,2.3,5.7-0.3,8,2"/>
	<path fill="none" stroke-width="2" stroke-linecap="round" stroke-linejoin="round" stroke-miterlimit="10" d="
		M592,393.7c1.2-1.4,2.6-2.4,4.5-3.1c1.8-0.6,2.9-1.9,1.5-3.9c-1.2-1.8-2.8-2.8-5-1.5c-1.4,0.8-2.7,1.7-4,2.5"/>
	<path fill="none" stroke-width="2" stroke-linecap="round" stroke-linejoin="round" stroke-miterlimit="10" d="
		M388,381.2c-2,2.2-4,4.3-6,6.5"/>
	<path fill="none" stroke-width="2" stroke-linecap="round" stroke-linejoin="round" stroke-miterlimit="10" d="
		M240.5,228.3c2.5,0.2,3.3,1.3,3.1,4c-0.2,2.6,0.5,5.3,0.9,8c0.5,3.6-1.1,5.9-4.5,7"/>
	<path fill="none" stroke-width="2" stroke-linecap="round" stroke-linejoin="round" stroke-miterlimit="10" d="
		M619.5,314.7c2.5,1.7,4.9,1.3,7.5,0c2.3-1.1,3.4-2.8,1.9-5c-1.4-2.1-1.1-3.8-0.6-6.1c0.5-2.3,1.3-5.7-2.8-6.5
		c-3.5-0.7-5.8,0.3-6.5,4"/>
	<path fill="none" stroke-width="2" stroke-linecap="round" stroke-linejoin="round" stroke-miterlimit="10" d="
		M85.5,147.3c-0.4,5.3-1.9,9.9-8,11"/>
	<path fill="none" stroke-width="2" stroke-linecap="round" stroke-linejoin="round" stroke-miterlimit="10" d="
		M495.5,413.2c-0.1,2.5-4.7,2.1-3.5,5.5"/>
	<path fill="none" stroke-width="2" stroke-linecap="round" stroke-linejoin="round" stroke-miterlimit="10" d="
		M549,412.7c2.4,3.8-0.1,6.6-2,9.5"/>
	<path fill="none" stroke-width="2" stroke-linecap="round" stroke-linejoin="round" stroke-miterlimit="10" d="
		M500.5,418.7c2.5-0.1,4.8,2.8,7.5,0.5"/>
	<path fill="none" stroke-width="2" stroke-linecap="round" stroke-linejoin="round" stroke-miterlimit="10" d="
		M529.5,346.7c3.4,0.8,6.7,0.7,10-0.5"/>
	<path fill="none" stroke-width="2" stroke-linecap="round" stroke-linejoin="round" stroke-miterlimit="10" d="
		M300.5,140.3c4.9,6,4.5,8.5-1.5,9.5c-3.3,0.5-5.1-1.2-5.5-4.5"/>
	<path fill="none" stroke-width="2" stroke-linecap="round" stroke-linejoin="round" stroke-miterlimit="10" d="
		M80.5,185.8c2.1,2.2,6.7,1.1,7,5.5"/>
	<path fill="none" stroke-width="2" stroke-linecap="round" stroke-linejoin="round" stroke-miterlimit="10" d="
		M544,398.7c0.3,3.7,0.6,7.3,1,11c0.1,1.3-0.2,1.8-1.5,1.5"/>
	<path fill="none" stroke-width="2" stroke-linecap="round" stroke-linejoin="round" stroke-miterlimit="10" d="
		M425.5,367.2c0,0.3,0,0.7,0,1c-0.4,5.5-0.4,5.5-6,5.5"/>
	<path fill="none" stroke-width="2" stroke-linecap="round" stroke-linejoin="round" stroke-miterlimit="10" d="
		M405.5,367.2c0.1,2.2-0.5,4.8,2.5,5.4c1.8,0.4,3.5-0.5,4-2.4c0.7-2.7-1.4-4.4-2.5-6.5c0-0.1-0.4-0.1-0.5,0
		c-0.2,0.1-0.3,0.3-0.5,0.5"/>
	<path fill="none" stroke-width="2" stroke-linecap="round" stroke-linejoin="round" stroke-miterlimit="10" d="
		M413,398.2c-1.6-1.4-2.5-4.2-5.5-2.5"/>
	<path fill="none" stroke-width="2" stroke-linecap="round" stroke-linejoin="round" stroke-miterlimit="10" d="
		M53.5,169.5c3.3,2.2,2.5,4.9,1,7.7"/>
	<path fill="none" stroke-width="2" stroke-linecap="round" stroke-linejoin="round" stroke-miterlimit="10" d="
		M205.5,39.8c2,4,0.7,8.3,0.9,12.5c0.1,2.3-2.5,1.2-3.9,1.5"/>
	<path fill="none" stroke-width="2" stroke-linecap="round" stroke-linejoin="round" stroke-miterlimit="10" d="
		M577,344.2c0.2,5.2,0.3,10.3,0.5,15.5"/>
	<path fill="none" stroke-width="2" stroke-linecap="round" stroke-linejoin="round" stroke-miterlimit="10" d="
		M27.5,157.3c-3.4,0-6.8,0-10-1.5"/>
	<path fill="none" stroke-width="2" stroke-linecap="round" stroke-linejoin="round" stroke-miterlimit="10" d="
		M485,538.2c0.5,4.2-3.5,6.4-4.5,10"/>
	<path fill="none" stroke-width="2" stroke-linecap="round" stroke-linejoin="round" stroke-miterlimit="10" d="
		M546.5,423.2c-2,1-4,2-6,3"/>
	<path fill="none" stroke-width="2" stroke-linecap="round" stroke-linejoin="round" stroke-miterlimit="10" d="
		M636.9,334.7c3.6,1.1,7.1,0.3,10.5-1"/>
	<path fill="none" stroke-width="2" stroke-linecap="round" stroke-linejoin="round" stroke-miterlimit="10" d="
		M410,363.7c1.6-1.5,3.2-3.1,1.9-5.5c-0.9-1.7-2.6-2.2-4.4-1"/>
	<path fill="none" stroke-width="2" stroke-linecap="round" stroke-linejoin="round" stroke-miterlimit="10" d="
		M61.5,108.8c2.2,0.8,3.7,2.3,4.5,4.5"/>
	<path fill="none" stroke-width="2" stroke-linecap="round" stroke-linejoin="round" stroke-miterlimit="10" d="
		M43.3,193c-1.9-0.9-3.2-3.1-5.7-2.7"/>
	<path fill="none" stroke-width="2" stroke-linecap="round" stroke-linejoin="round" stroke-miterlimit="10" d="
		M205.5,34.3c0,2.1,1.3,4.5-2,5.6c-1.8,0.6-2.3,2.6-2.5,4.4"/>
	<path fill="none" stroke-width="2" stroke-linecap="round" stroke-linejoin="round" stroke-miterlimit="10" d="
		M531.5,293.7c-1-5.4-1-5.4,7-5.5"/>
	<path fill="none" stroke-width="2" stroke-linecap="round" stroke-linejoin="round" stroke-miterlimit="10" d="
		M248.5,232.3c-0.8,3-0.8,6,0,9"/>
	<path fill="none" stroke-width="2" stroke-linecap="round" stroke-linejoin="round" stroke-miterlimit="10" d="
		M304.5,199.3c3,0,6,0,9,0"/>
	<path fill="none" stroke-width="2" stroke-linecap="round" stroke-linejoin="round" stroke-miterlimit="10" d="
		M84,155.3c2.8,2.2,1.6,4.9,1,7.5"/>
	<path fill="none" stroke-width="2" stroke-linecap="round" stroke-linejoin="round" stroke-miterlimit="10" d="
		M435.5,373.7c-1.1,2.8,1.4,5.8-0.5,8.5"/>
	<path fill="none" stroke-width="2" stroke-linecap="round" stroke-linejoin="round" stroke-miterlimit="10" d="
		M493.5,397.7c-2.3,1.3-4.7,2.2-7,0"/>
	<path fill="none" stroke-width="2" stroke-linecap="round" stroke-linejoin="round" stroke-miterlimit="10" d="
		M305.5,244.2c-2.7-0.6-5.4-0.1-8,0.5"/>
	<path fill="none" stroke-width="2" stroke-linecap="round" stroke-linejoin="round" stroke-miterlimit="10" d="
		M657.4,335.7c-2.7,0.2-5.3,0.3-8,0.5"/>
	<path fill="none" stroke-width="2" stroke-linecap="round" stroke-linejoin="round" stroke-miterlimit="10" d="
		M157.5,57.8c-2.3-2-4.7,0-7,0"/>
	<path fill="none" stroke-width="2" stroke-linecap="round" stroke-linejoin="round" stroke-miterlimit="10" d="
		M587.5,214.3c1.7,1.2,3.7,0.1,5.5,0.5"/>
	<path fill="none" stroke-width="2" stroke-linecap="round" stroke-linejoin="round" stroke-miterlimit="10" d="
		M260.5,109.8c-2.3-0.8-4.7-0.8-7,0"/>
	<path fill="none" stroke-width="2" stroke-linecap="round" stroke-linejoin="round" stroke-miterlimit="10" d="
		M584.5,226.8c-2.3-0.8-4.7-0.8-7,0"/>
	<path fill="none" stroke-width="2" stroke-linecap="round" stroke-linejoin="round" stroke-miterlimit="10" d="
		M129.5,112.8c1.9-1.5,4-0.4,6-0.5"/>
	<path fill="none" stroke-width="2" stroke-linecap="round" stroke-linejoin="round" stroke-miterlimit="10" d="
		M344,132.3c2.9,2.2,1.1,4.9,1,7.5"/>
	<path fill="none" stroke-width="2" stroke-linecap="round" stroke-linejoin="round" stroke-miterlimit="10" d="
		M639.9,409.7c-2.9,1.1-5.1,5.2-9,2"/>
	<path fill="none" stroke-width="2" stroke-linecap="round" stroke-linejoin="round" stroke-miterlimit="10" d="
		M229.5,148.3c-2.3,0-4.7,0-7,0"/>
</g>
</svg>
