<?xml version="1.0" encoding="utf-8"?>
<!-- Generator: Adobe Illustrator 18.0.0, SVG Export Plug-In . SVG Version: 6.00 Build 0)  -->
<!DOCTYPE svg PUBLIC "-//W3C//DTD SVG 1.1//EN" "http://www.w3.org/Graphics/SVG/1.1/DTD/svg11.dtd">
<svg version="1.1" id="Layer_1" xmlns="http://www.w3.org/2000/svg" xmlns:xlink="http://www.w3.org/1999/xlink" x="0px" y="0px"
	 viewBox="0 0 435 117.7" enable-background="new 0 0 435 117.7" xml:space="preserve">
<g>
	<polygon fill="#008274" points="308.6,1 308.6,116.2 401.9,1"/>
	<path stroke="#008274" stroke-miterlimit="10" d="M308.6,116.7c-0.1,0-0.3-0.1-0.4-0.2L213.9,2l-48,114.5c-0.1,0.2-0.2,0.3-0.4,0.3
		c-0.2,0-0.3,0-0.4-0.1l-56.8-52.9c-0.2-0.2-0.2-0.5,0-0.7c0.2-0.2,0.5-0.2,0.7,0l56.3,52.4l48-114.6c0.1-0.2,0.2-0.3,0.4-0.3
		c0.2,0,0.3,0,0.5,0.2L309,115.9c0.2,0.2,0.1,0.5-0.1,0.7C308.8,116.7,308.7,116.7,308.6,116.7z"/>
	<polygon fill="#ff00a8" points="0.8,1 63.6,116.2 108.6,63.3 108.7,1"/>
	<ellipse fill="#ff00a8" cx="418.4" cy="100.2" rx="16.5" ry="16.1"/>
</g>

</svg>